<svg width="204" height="160" viewBox="0 0 204 160" fill="none" xmlns="http://www.w3.org/2000/svg">
<path d="M52.0069 44.5199C52.182 44.6074 52.3571 44.6293 52.5322 44.6512C52.7073 44.6731 52.8824 44.6512 53.0575 44.6293C53.2545 44.6074 53.4296 44.5636 53.6266 44.498C53.736 44.4761 53.8235 44.4542 53.933 44.4104C54.0424 44.3885 54.13 44.3448 54.2394 44.3229C53.4077 43.9946 52.6197 44.0602 52.0069 44.5199Z" fill="#0055F9"/>
<path d="M54.2614 44.3447C54.2395 44.3229 54.2614 44.3229 54.2614 44.3447V44.3447Z" fill="#0055F9"/>
<path d="M101.956 157.527C102.219 157.527 102.503 157.527 102.788 157.527C103.072 157.527 103.379 157.527 103.685 157.527C103.401 157.505 103.116 157.505 102.81 157.505C102.525 157.505 102.241 157.505 101.956 157.527Z" fill="#0055F9"/>
<path d="M86.4367 50.0794C86.4367 50.0794 86.5899 50.2983 86.7432 50.5172C86.8964 50.736 87.0496 50.9549 87.0496 50.9549C86.8526 51.0425 86.6994 50.7798 86.5681 50.5609C86.5024 50.4515 86.4367 50.3202 86.3929 50.2545C86.3711 50.2326 86.3711 50.2107 86.3492 50.2326H86.3273C86.3054 50.2326 86.2835 50.2545 86.2397 50.2545C86.1741 50.2764 86.1084 50.2983 86.0427 50.3202C85.9552 50.3639 85.8676 50.3858 85.7582 50.4296C85.605 50.4953 85.4299 50.5609 85.2547 50.6485C84.8826 50.8017 84.4887 50.9768 84.029 51.1738C83.4599 51.7866 82.4311 52.3776 81.1616 52.9467C79.8921 53.5158 78.3818 54.063 76.8715 54.6102C75.3393 55.1574 73.8509 55.7046 72.6032 56.2299C71.3775 56.7552 70.4144 57.2367 69.9985 57.6526C69.9766 57.6307 69.7578 57.6964 69.4294 57.8277C69.1011 57.959 68.6633 58.1122 68.2474 58.2873C67.3719 58.6156 66.4745 58.9002 66.3432 58.7032C66.2337 59.2066 65.4676 59.6663 64.4826 60.1259C64.2419 60.2354 63.9792 60.3667 63.7166 60.4761C63.4539 60.6074 63.1912 60.7169 62.9505 60.8482C62.4251 61.1109 61.9217 61.3735 61.4839 61.6799C61.0243 62.1834 62.2719 61.5267 63.0599 61.3954C63.0599 61.3954 62.7972 61.5486 62.4251 61.7894C62.2281 61.8988 62.0093 62.052 61.7685 62.1834C61.5277 62.3366 61.2869 62.4898 61.0462 62.643C60.5646 62.9494 60.0612 63.2778 59.711 63.5185C59.3389 63.7593 59.12 63.9125 59.12 63.9125C57.2157 64.7224 56.2088 64.7661 57.8505 63.6717C56.4496 64.4597 54.3921 65.6416 52.0719 67.1519C49.7299 68.6622 47.0814 70.5007 44.4985 72.5582C43.8638 73.0835 43.2071 73.6088 42.5505 74.1341C41.9157 74.6813 41.2809 75.2285 40.6243 75.7757C40.0114 76.3448 39.3766 76.9139 38.7419 77.483C38.4354 77.7675 38.129 78.0739 37.8226 78.3585C37.5161 78.643 37.2097 78.9494 36.9251 79.2559C34.5393 81.6416 32.3505 84.1368 30.4024 86.654C29.9208 87.2887 29.4612 87.9234 29.0015 88.5363C28.7826 88.8427 28.5638 89.1711 28.3449 89.4775C28.126 89.7839 27.9071 90.1122 27.6882 90.4187C27.2723 91.0534 26.8565 91.6882 26.4625 92.301C26.2655 92.6074 26.0685 92.9358 25.8715 93.2422C25.6964 93.5486 25.5213 93.855 25.3462 94.1615C23.9891 96.6348 23.2011 98.9549 22.829 101.012C22.4569 103.07 22.4788 104.865 22.6539 106.331C22.6977 106.703 22.7414 107.053 22.7852 107.382C22.829 107.71 22.9166 108.038 22.9822 108.345C23.1354 108.958 23.2887 109.549 23.4857 110.074C23.5513 109.746 23.5294 109.352 23.5075 108.958C23.4857 108.564 23.4419 108.148 23.42 107.754C23.3981 106.966 23.5075 106.222 24.0329 105.631C24.208 106.025 24.2736 106.375 24.2955 106.725C24.3393 107.053 24.3393 107.382 24.3612 107.666C24.3831 108.235 24.4487 108.717 24.8208 109.089C24.5363 109.439 24.4487 109.921 24.5144 110.512C24.5801 111.103 24.8427 111.847 25.1492 112.547C25.4556 113.27 25.8058 113.948 26.0685 114.539C26.3093 115.152 26.4406 115.655 26.3311 116.137C26.3311 116.137 26.3968 116.137 26.5063 116.137C26.6157 116.137 26.747 116.137 26.8784 116.137C27.0097 116.137 27.1629 116.137 27.2723 116.137C27.3818 116.137 27.4475 116.137 27.4475 116.137C27.4475 116.137 27.4693 116.356 27.4912 116.575C27.5131 116.793 27.5131 116.99 27.5131 116.99C28.1698 117.538 28.5857 117.778 28.9359 117.954C29.2642 118.129 29.505 118.238 29.702 118.326C30.0741 118.479 30.1835 118.523 30.2492 118.588C30.3148 118.654 30.3148 118.72 30.4899 118.938C30.5337 118.982 30.5775 119.048 30.6432 119.135C30.7088 119.201 30.7964 119.289 30.9058 119.376C31.0153 119.464 31.1466 119.573 31.2779 119.705C31.3436 119.77 31.4311 119.836 31.5187 119.902C31.5625 119.945 31.6063 119.967 31.65 120.011C31.6938 120.055 31.7595 120.077 31.8032 120.12C32.0878 120.274 32.3942 120.383 32.7007 120.493C32.8539 120.536 33.0071 120.58 33.1603 120.624C33.3135 120.668 33.4887 120.69 33.6638 120.733C33.9921 120.799 34.3204 120.843 34.6487 120.865C34.802 120.887 34.9771 120.887 35.1303 120.908C35.2178 120.908 35.2835 120.93 35.3711 120.93C35.4586 120.93 35.5462 120.93 35.6118 120.952C36.2685 120.996 36.8595 121.018 37.3629 121.105C37.4942 121.127 37.6037 121.149 37.7131 121.171C37.8226 121.193 37.9539 121.237 38.0633 121.259C38.2822 121.324 38.4792 121.434 38.6324 121.543C38.3698 121.456 38.4135 120.69 39.6612 120.646C39.3985 120.865 39.4861 120.974 39.7269 121.04C39.8582 121.062 40.0114 121.084 40.2084 121.084C40.2959 121.084 40.4054 121.084 40.5148 121.084C40.6243 121.084 40.7118 121.084 40.8432 121.084C41.8063 121.04 42.835 120.974 42.4848 121.499C42.638 121.499 42.8131 121.521 43.032 121.543C43.0539 121.543 43.0758 121.543 43.1196 121.543C43.1414 121.543 43.1852 121.543 43.2071 121.543C43.2728 121.543 43.3384 121.543 43.4041 121.543C43.5354 121.543 43.6887 121.543 43.82 121.543C44.3891 121.543 45.0238 121.543 45.6367 121.477C45.9432 121.456 46.2277 121.412 46.4904 121.368C46.7968 121.302 47.0814 121.193 47.3221 121.105C47.8037 120.908 48.0882 120.646 48.0882 120.339C48.1101 120.646 49.1608 120.799 49.7736 120.974C49.9268 121.018 50.0582 121.062 50.1457 121.105C50.1676 121.127 50.1895 121.127 50.1895 121.149C50.2114 121.149 50.2333 121.171 50.2333 121.171C50.2552 121.193 50.2552 121.215 50.2552 121.237C50.2114 121.302 50.102 121.368 49.8612 121.456C49.6423 121.543 49.3359 121.631 48.92 121.718C49.0951 121.718 49.2921 121.718 49.4672 121.696C49.5547 121.696 49.6642 121.674 49.7736 121.653C49.8831 121.631 49.9925 121.609 50.102 121.609C50.5397 121.543 50.9775 121.477 51.3934 121.412C52.247 121.259 53.0788 121.084 53.9324 120.799L51.9187 120.865C52.7505 120.69 53.4947 120.536 54.217 120.405C54.3921 120.383 54.5672 120.339 54.7423 120.317C54.9393 120.274 55.1144 120.23 55.2895 120.186C55.6616 120.099 56.0118 120.033 56.3402 119.967C57.0187 119.836 57.6753 119.705 58.2882 119.573C58.5947 119.508 58.9011 119.442 59.2075 119.398C59.3608 119.376 59.514 119.332 59.6672 119.311C59.8204 119.267 59.9736 119.245 60.1269 119.201C62.6221 118.61 64.8985 117.997 67.8972 116.662C67.8972 116.662 67.3063 116.728 66.6934 116.793C66.4088 116.837 66.1024 116.859 65.8835 116.881C65.6646 116.903 65.5333 116.903 65.5333 116.903C66.6715 116.575 67.744 116.268 68.7728 115.962C69.7796 115.677 70.7208 115.436 71.5307 115.239C73.1942 114.845 74.3981 114.736 74.9453 115.064L69.8453 116.859C71.8153 116.29 73.6101 115.743 75.2736 115.239C76.9371 114.736 78.4912 114.276 80.0015 113.795C81.5118 113.313 82.9565 112.854 84.4449 112.372C85.9333 111.891 87.4655 111.343 89.0414 110.84C89.0414 110.84 88.4942 110.971 87.947 111.103C87.8157 111.125 87.6625 111.168 87.5311 111.19C87.3998 111.234 87.2685 111.256 87.1809 111.278C86.962 111.343 86.8307 111.365 86.8307 111.365C88.9101 110.577 93.0251 109.286 97.9281 108.104C98.2346 108.016 98.541 107.951 98.8693 107.885C99.1758 107.819 99.5041 107.754 99.8105 107.688C100.139 107.622 100.445 107.557 100.752 107.491C100.905 107.469 101.058 107.425 101.233 107.404L101.474 107.36C101.54 107.338 101.649 107.316 101.671 107.316C101.999 107.25 102.328 107.163 102.656 107.097C102.984 107.032 103.335 106.966 103.663 106.9C105.02 106.594 106.443 106.375 107.865 106.134C110.689 105.674 113.491 105.434 115.767 105.259C116.336 105.215 116.883 105.193 117.387 105.127C117.89 105.083 118.35 105.084 118.766 105.04C119.182 105.018 119.554 104.974 119.882 104.93C120.211 104.887 120.473 104.865 120.692 104.821C120.692 104.821 120.605 104.755 120.473 104.668C120.342 104.58 120.167 104.449 119.992 104.339C119.62 104.12 119.269 103.902 119.269 103.902C119.269 103.902 119.444 103.88 119.729 103.836C119.86 103.814 120.035 103.792 120.189 103.77C120.364 103.748 120.539 103.748 120.714 103.726C121.436 103.661 122.18 103.595 122.18 103.595C122.005 103.573 121.59 104.12 121.174 104.646C120.758 105.171 120.386 105.674 120.276 105.521C121.743 105.696 124.763 106.047 128.309 107.01C128.528 107.075 128.747 107.119 128.988 107.185C129.207 107.25 129.426 107.338 129.666 107.404C130.126 107.557 130.586 107.71 131.045 107.863C131.286 107.929 131.505 108.038 131.746 108.126C131.987 108.213 132.205 108.301 132.446 108.41C132.906 108.586 133.409 108.783 133.847 108.98C135.686 109.789 137.415 110.774 138.859 111.847C140.304 112.919 141.42 114.058 142.208 115.174C142.252 115.239 142.318 115.305 142.362 115.371L142.471 115.568L142.602 115.743L142.712 115.94C142.865 116.203 142.996 116.465 143.106 116.706C143.347 117.231 143.5 117.757 143.631 118.216C143.653 118.326 143.697 118.457 143.719 118.566C143.741 118.676 143.762 118.785 143.784 118.895C143.806 119.004 143.806 119.114 143.806 119.201C143.806 119.245 143.828 119.311 143.828 119.354C143.828 119.398 143.828 119.442 143.828 119.486C143.828 119.595 143.828 119.639 143.85 119.726C143.85 119.792 143.828 119.858 143.828 119.945C143.828 119.989 143.828 120.011 143.828 120.055C143.828 120.099 143.806 120.12 143.806 120.142C143.806 120.208 143.784 120.274 143.784 120.339C143.719 120.821 143.544 121.171 143.412 121.39C143.325 121.456 143.259 121.499 143.193 121.521C142.974 121.587 142.799 121.543 142.646 121.456C142.493 121.368 142.362 121.237 142.274 121.149C142.208 121.084 142.165 121.04 142.143 121.04C142.143 121.062 142.143 121.083 142.165 121.105C142.165 121.259 142.208 121.39 142.252 121.477C142.296 121.565 142.34 121.631 142.405 121.696C142.449 121.762 142.493 121.828 142.493 121.893C142.493 121.981 142.449 122.068 142.34 122.2C142.23 122.244 142.121 122.134 142.033 122.025C141.946 121.893 141.88 121.762 141.858 121.696C141.836 121.828 141.705 121.893 141.639 121.959C141.596 122.003 141.596 122.003 141.596 122.047C141.596 122.09 141.617 122.156 141.661 122.222C141.793 122.156 141.88 122.244 142.011 122.287C142.143 122.353 142.274 122.419 142.405 122.528C142.69 122.725 142.974 122.966 143.281 123.075C143.281 123.075 143.281 123.097 143.237 123.119C143.215 123.141 143.171 123.185 143.15 123.207C143.128 123.229 143.106 123.25 143.084 123.272C143.062 123.294 143.04 123.316 143.018 123.338C142.974 123.382 142.909 123.447 142.821 123.513C142.69 123.644 142.537 123.776 142.405 123.863C142.274 123.973 142.186 124.038 142.186 124.038L141.858 123.557C141.793 123.622 141.771 123.754 141.749 123.951C141.749 124.148 141.705 124.41 141.639 124.695C141.596 124.826 141.552 124.98 141.464 125.133C141.377 125.286 141.289 125.439 141.158 125.592C140.895 125.877 140.501 126.161 139.954 126.38C138.137 127.234 135.883 128.088 133.387 128.81C132.753 128.985 132.14 129.16 131.439 129.335C131.089 129.423 130.761 129.51 130.432 129.598C130.104 129.685 129.754 129.751 129.404 129.839C129.075 129.926 128.725 129.992 128.397 130.079C128.047 130.145 127.718 130.211 127.39 130.298C126.711 130.451 126.055 130.561 125.376 130.67C125.398 130.32 126.471 129.904 127.521 129.445C127.171 129.51 126.733 129.62 126.296 129.707C125.858 129.773 125.42 129.839 125.07 129.773C125.77 129.948 125.223 130.167 124.654 130.342C124.085 130.517 123.45 130.627 123.975 130.67C122.159 131.721 119.882 132.115 117.671 132.334C115.461 132.575 113.294 132.662 111.565 133.231C111.499 133.56 111.083 135.114 110.426 137.302C109.77 139.491 108.872 142.271 107.887 145.051C106.924 147.83 105.874 150.61 105.042 152.777C104.21 154.944 103.641 156.52 103.619 156.892C102.284 156.848 100.949 156.761 100.533 156.629C100.708 156.804 101.452 156.98 102.328 157.067C103.203 157.155 104.232 157.155 104.932 157.067L105.173 156.257C106.771 156.104 106.968 156.235 107.143 156.367C107.318 156.52 107.493 156.695 109.069 156.629C109.157 156.958 108.478 157.177 107.45 157.33C106.421 157.461 105.042 157.527 103.772 157.527C106.071 157.658 108.413 158.074 109.332 157.33C110.426 157.439 110.361 157.636 110.383 157.855C110.383 158.052 110.448 158.271 111.762 158.358C112.703 158.227 113.775 157.943 114.87 157.724C115.417 157.614 115.986 157.505 116.533 157.461C117.102 157.417 117.65 157.395 118.197 157.439L118.175 157.571C120.823 157.658 122.771 157.133 124.654 156.607C126.536 156.06 128.331 155.513 130.739 155.36L130.279 155.688C132.03 155.754 135.16 154.55 138.203 154.156C137.327 154.244 136.474 153.959 138.225 153.434C138.641 153.39 139.122 153.302 139.538 153.215C139.976 153.127 140.37 153.04 140.786 152.93C141.596 152.733 142.34 152.493 143.062 152.252C144.529 151.77 145.886 151.311 147.418 150.938C147.418 150.938 148.053 150.501 148.665 150.041C148.972 149.822 149.3 149.581 149.519 149.406C149.76 149.231 149.913 149.1 149.913 149.1C150.701 148.728 151.62 148.246 152.737 147.612C153.853 146.977 155.166 146.167 156.699 145.029C157.465 144.438 158.296 143.803 159.15 143.015C159.369 142.818 159.588 142.621 159.807 142.402C160.026 142.183 160.266 141.986 160.485 141.746C160.704 141.505 160.945 141.286 161.186 141.023C161.295 140.914 161.426 140.783 161.536 140.651C161.667 140.52 161.777 140.389 161.908 140.235C162.171 139.951 162.411 139.644 162.652 139.36C162.893 139.053 163.156 138.747 163.396 138.441C163.878 137.806 164.359 137.127 164.819 136.405C165.738 134.96 166.592 133.363 167.336 131.568C167.49 131.174 167.643 130.78 167.774 130.364C167.905 129.948 168.08 129.554 168.19 129.116C168.431 128.263 168.693 127.387 168.847 126.49C169.241 124.673 169.438 122.725 169.481 120.733C169.481 120.23 169.481 119.726 169.481 119.223C169.459 118.72 169.416 118.194 169.394 117.713C169.372 117.209 169.306 116.728 169.241 116.246C169.175 115.765 169.109 115.261 169.022 114.78C168.934 114.298 168.847 113.817 168.737 113.335C168.628 112.854 168.496 112.372 168.387 111.891C168.277 111.409 168.124 110.949 167.971 110.468C167.818 109.986 167.665 109.527 167.49 109.067C166.811 107.185 165.979 105.368 164.972 103.617C164.71 103.179 164.469 102.742 164.184 102.304L163.768 101.669C163.637 101.45 163.484 101.231 163.353 101.034C163.068 100.64 162.783 100.246 162.499 99.8523C162.193 99.4583 161.908 99.0862 161.602 98.7141C160.376 97.2258 159.062 95.8468 157.705 94.5992C156.348 93.3516 154.947 92.2572 153.547 91.2504C152.146 90.2436 150.745 89.3462 149.344 88.5582C147.943 87.7702 146.586 87.0479 145.229 86.4351C144.901 86.2819 144.55 86.1286 144.222 85.9754C143.894 85.8222 143.565 85.669 143.237 85.5596C142.58 85.2969 141.946 85.0561 141.311 84.7935C140.063 84.2682 138.816 83.8961 137.634 83.5021C132.884 81.9918 128.9 81.3352 126.383 80.9193L126.908 80.8975C126.274 80.788 125.639 80.7224 124.982 80.6348C124.326 80.5472 123.647 80.4816 122.947 80.394C122.246 80.3284 121.546 80.2846 120.823 80.2189C120.101 80.1752 119.357 80.0876 118.613 80.0657C117.868 80.0438 117.102 80.0001 116.314 79.9782C115.92 79.9563 115.526 79.9563 115.132 79.9563C114.738 79.9563 114.344 79.9563 113.95 79.9563C112.353 79.9344 110.733 80.0219 109.069 80.0657C105.764 80.2627 102.328 80.591 98.9131 81.0726C98.5629 81.1382 98.2127 81.182 97.8406 81.2477C97.7968 81.2477 97.7749 81.2695 97.7311 81.2695L97.6436 81.2914C97.5341 81.3133 97.4466 81.3352 97.3372 81.3571C97.1183 81.4009 96.9213 81.4665 96.7024 81.5322C94.9513 82.0575 92.9157 82.933 90.2453 84.0931C90.7925 83.6334 90.8801 83.4802 90.8144 83.4364C90.7487 83.3927 90.5299 83.4364 90.6174 83.3051C90.3329 83.524 89.8294 83.8304 89.3917 84.0931C88.9539 84.3557 88.5599 84.5746 88.4942 84.5746C87.8376 84.684 87.4436 84.881 86.9183 85.1656C86.6556 85.3188 86.3492 85.472 85.9333 85.6471C85.7144 85.7347 85.4955 85.8222 85.211 85.9098C84.9264 85.9754 84.62 86.0411 84.2479 86.0192C83.9852 86.0411 83.7007 86.0192 83.4599 85.9317C83.2191 85.8441 83.0002 85.6909 82.9127 85.472C82.8251 85.2531 82.847 85.0124 82.9346 84.7935C83.0221 84.5527 83.1754 84.312 83.3286 84.0493C83.6569 83.524 84.0947 82.9768 84.62 82.4296C85.1453 81.8824 85.7582 81.3571 86.4148 80.8756C87.7062 79.8906 89.129 79.1245 90.3329 78.5992C91.5367 78.0739 92.4998 77.7675 93.0908 77.6581C92.9595 77.4392 93.0251 77.2641 93.2002 77.1109C93.3753 76.9576 93.638 76.8263 93.9007 76.695C94.1633 76.5856 94.4479 76.4761 94.6887 76.3448C94.9294 76.2135 95.1483 76.0602 95.3234 75.8195C95.3234 75.8195 95.3234 75.8851 95.3453 75.9289C95.3453 75.9946 95.3672 76.0384 95.3672 76.0384C95.4766 75.9508 95.6736 75.8414 95.9363 75.7319C96.002 75.71 96.0676 75.6663 96.1552 75.6444C96.3303 75.5787 96.5054 75.5131 96.6805 75.4255C96.9432 75.3161 97.2496 75.2066 97.5341 75.0753C98.738 74.5719 100.029 74.0466 101.365 73.4337C102.722 72.8427 104.101 72.1642 105.545 71.4638C106.246 71.0917 106.946 70.7196 107.668 70.3256L108.194 70.0192C108.369 69.9098 108.544 69.8222 108.719 69.7128C109.069 69.5158 109.42 69.2969 109.792 69.078C112.593 67.3708 115.373 65.4446 117.54 63.2559L118.328 62.4241C118.459 62.2928 118.591 62.1615 118.722 62.0083L119.05 61.5924C119.269 61.3078 119.51 61.0233 119.729 60.7388C119.948 60.4542 120.189 60.1697 120.386 59.8851C121.174 58.747 121.83 57.565 122.356 56.3174C122.881 55.0698 123.253 53.7128 123.45 52.3557C123.647 50.9768 123.647 49.5979 123.516 48.3284C123.362 47.0589 123.1 45.8988 122.771 44.8701C122.443 43.8414 122.049 42.9002 121.633 42.0903C120.802 40.4488 119.926 39.2449 119.269 38.457C119.269 38.457 119.401 38.6758 119.532 38.9166C119.663 39.1574 119.773 39.3762 119.773 39.3762C119.204 38.6758 118.678 38.1068 118.219 37.6033C117.759 37.0999 117.365 36.684 117.037 36.312C116.949 36.2244 116.883 36.1369 116.796 36.0493C116.708 35.9617 116.621 35.8742 116.533 35.8085C116.38 35.6553 116.227 35.5021 116.096 35.3489C115.833 35.0425 115.592 34.7798 115.373 34.5172C115.154 34.2545 114.957 33.97 114.76 33.6854C114.651 33.5541 114.541 33.4009 114.432 33.2477C114.323 33.0944 114.213 32.9412 114.038 32.788C113.403 32.1752 112.55 31.431 111.28 30.4241C111.236 30.7306 110.799 30.7087 110.142 30.5117C109.463 30.3366 108.522 30.0083 107.537 29.6143C107.034 29.4173 106.53 29.1984 106.027 28.9795C105.764 28.8701 105.523 28.7607 105.283 28.6512C105.02 28.5418 104.779 28.4542 104.517 28.3448C103.532 27.9289 102.634 27.5568 102.021 27.2504L102.24 27.0972C101.759 26.8783 101.233 26.6156 100.577 26.3968C99.9419 26.1779 99.2414 25.9152 98.4972 25.6526C98.1251 25.5213 97.753 25.3899 97.359 25.2367C97.162 25.1711 96.965 25.1054 96.7681 25.0178C96.6586 24.9741 96.5711 24.9522 96.4616 24.9084C96.3741 24.8865 96.2865 24.8646 96.199 24.8427C96.1114 24.8208 96.0238 24.799 95.9363 24.7771L95.7174 24.7114C95.5642 24.6676 95.4329 24.6457 95.2796 24.602C94.9951 24.5144 94.6887 24.4488 94.3822 24.3612C94.0758 24.2737 93.7693 24.208 93.4629 24.1204C93.1565 24.0548 92.85 23.9672 92.5217 23.9016C91.8869 23.7483 91.2741 23.5951 90.6393 23.4638C90.0264 23.3106 89.3917 23.2011 88.8007 23.0479C88.2097 22.9166 87.6187 22.7634 87.0715 22.6321L87.3998 22.1068C86.4367 22.0192 85.2766 21.8003 84.0509 21.5814C83.438 21.472 82.8032 21.3626 82.1685 21.2312C81.8402 21.1656 81.5337 21.0999 81.2054 21.0343C80.8771 20.9686 80.5706 20.9248 80.2423 20.8591C79.6075 20.7497 78.9728 20.6184 78.3599 20.5089C77.747 20.3995 77.156 20.312 76.6088 20.2244C76.0616 20.1369 75.5363 20.0712 75.0766 19.9836C74.617 19.918 74.2011 19.8742 73.8728 19.8523C73.1067 19.7429 72.2749 19.5897 71.3994 19.4583C70.5238 19.3489 69.6045 19.2176 68.6414 19.0862C67.6784 18.9987 66.6934 18.8892 65.6646 18.8017C64.6359 18.736 63.5852 18.6923 62.5127 18.6266C60.3457 18.5609 58.0256 18.6266 55.6178 18.933C53.232 19.2395 50.7586 19.7866 48.3728 20.7059C48.3728 20.7059 47.9569 20.7278 47.3002 20.7716C46.9719 20.7935 46.5998 20.8373 46.1839 20.881C45.7681 20.9248 45.3303 20.9686 44.8925 21.0343C44.4548 21.0999 43.9951 21.1875 43.5792 21.2531C43.1633 21.3407 42.7475 21.4282 42.4191 21.4939C42.0689 21.5814 41.7844 21.6252 41.5874 21.6909C41.3904 21.7565 41.2809 21.7784 41.2809 21.7784L40.4054 22.4351C40.4054 22.4351 40.4054 22.5226 40.4054 22.6977C40.4054 22.8728 40.4054 23.1136 40.4273 23.42C40.4492 24.0548 40.5148 24.9522 40.6899 25.9809C40.7775 26.5062 40.8869 27.0534 41.0183 27.6444C41.1715 28.2353 41.3466 28.8482 41.5436 29.4611C41.9595 30.6868 42.5067 31.9563 43.1852 33.182C43.8638 34.4077 44.6299 35.5897 45.4835 36.684C45.8994 37.2312 46.359 37.7565 46.8187 38.2381C47.0376 38.4788 47.3002 38.6977 47.5191 38.9385C47.738 39.1793 47.9788 39.3981 48.1977 39.617C49.117 40.4925 49.9706 41.2367 50.8243 41.8715C51.0213 42.0247 51.2402 42.1779 51.4153 42.3092C51.6123 42.4405 51.8093 42.5719 52.0063 42.6813C52.3784 42.9002 52.7723 43.0972 53.1444 43.2066L53.3196 43.7757C53.3196 43.7757 53.3633 43.7538 53.429 43.71C53.5166 43.6663 53.6041 43.6225 53.7135 43.5568C53.823 43.513 53.9105 43.4474 53.9981 43.4036C54.0856 43.3598 54.1513 43.3379 54.1513 43.3379C54.3045 43.3161 54.4359 43.2942 54.5672 43.2504C54.6985 43.2285 54.8299 43.1847 54.9393 43.141C55.1582 43.0534 55.3552 42.9659 55.4865 42.9002C55.6397 42.8345 55.7273 42.7908 55.8148 42.7908C55.8805 42.7908 55.9243 42.8564 55.9462 43.0096C55.9462 43.0096 55.9243 43.0096 55.8586 43.0315C55.8148 43.0534 55.7492 43.0534 55.6616 43.0753C55.5741 43.0972 55.4865 43.1191 55.3771 43.141C55.2676 43.1628 55.1582 43.1847 55.0487 43.2285C54.8517 43.2942 54.611 43.3379 54.4796 43.3817C54.3264 43.4255 54.2389 43.4693 54.2389 43.4693C54.3921 43.4474 54.5015 43.4255 54.5891 43.4036C54.6985 43.4036 54.7642 43.4036 54.808 43.4255C54.9174 43.4474 54.9174 43.513 54.8736 43.6006C54.8299 43.6882 54.7423 43.7757 54.6547 43.907C54.5672 44.0165 54.4796 44.1478 54.3921 44.2572C54.5015 44.2353 54.6329 44.2135 54.7423 44.1916C54.8517 44.1697 54.9831 44.1478 55.0925 44.1478C55.202 44.1259 55.3333 44.1259 55.4427 44.1259C55.5741 44.1259 55.6835 44.1478 55.7929 44.1478C55.9899 43.8633 55.5522 43.9508 55.3333 43.8851C55.4865 43.7976 55.6616 43.6663 55.8367 43.5568C56.0118 43.4255 56.2307 43.3161 56.4496 43.1847C56.8874 42.9659 57.4127 42.7908 57.938 42.8564C58.135 42.8345 58.2882 42.8345 58.4196 42.8564C58.5509 42.8783 58.6384 42.9002 58.6822 42.944C58.8135 43.0315 58.8354 43.141 58.8792 43.2504C58.923 43.3598 58.9668 43.4693 59.1419 43.5568C59.317 43.6444 59.5796 43.6663 60.0612 43.6444C60.7178 43.6225 61.3964 43.6006 62.1187 43.6225H62.644C62.8191 43.6225 63.0161 43.6444 63.1912 43.6444L64.2857 43.6882C65.0299 43.71 65.7522 43.7976 66.4964 43.8414C67.2187 43.8851 67.9629 43.9946 68.6852 44.0821C71.5964 44.4323 74.4857 45.0014 77.3093 45.7456C80.1329 46.4898 82.9127 47.4091 85.6487 48.5035L86.5681 48.8756C86.6118 48.8975 86.5899 48.8975 86.5899 48.8975H86.6118L86.6337 48.9193C86.6775 48.9412 86.7213 48.9631 86.765 48.985C86.8526 49.0288 86.9402 49.0726 87.0277 49.1163C86.8088 49.2914 86.8088 49.2695 86.6994 49.3352C86.8745 49.2914 87.0058 49.3133 87.1372 49.3352C87.3123 49.379 87.4874 49.4447 87.6406 49.4884C87.2685 49.5979 86.7213 49.6416 86.3492 49.6635C86.5243 49.6416 86.6994 49.6416 86.7869 49.7073C86.8964 49.7511 86.8964 49.8386 86.8745 49.9043C86.6775 50.0794 86.4586 50.1451 86.4367 50.0794Z" fill="#0055F9"/>
<path d="M74.963 34.0541C87.9012 32.2763 119.822 32.7504 144 48.8689L125.333 143.091C125.139 143.019 124.942 142.946 124.741 142.872C120.474 143.644 116.247 146.698 114.667 148.128L40 127.091L62.2222 38.7948C64.1185 35.4763 71.5062 34.2516 74.963 34.0541Z" fill="#F7F3EE"/>
<path d="M74.963 34.0541C87.9012 32.2763 119.822 32.7504 144 48.8689L125.333 143.091C125.139 143.019 124.942 142.946 124.741 142.872M74.963 34.0541L52.1481 123.832M74.963 34.0541C71.5062 34.2516 64.1185 35.4763 62.2222 38.7948L40 127.091M52.1481 123.832C46.9333 123.161 41.8765 125.725 40 127.091M52.1481 123.832C75.3034 126.171 109.787 137.357 124.741 142.872M40 127.091L114.667 148.128C116.247 146.698 120.474 143.644 124.741 142.872" stroke="black" stroke-width="3"/>
<path d="M92.0551 62.4607L89.9384 61.8936L90.2395 60.7246L92.0166 61.2008C92.3298 61.2847 92.597 61.3138 92.8182 61.2882C93.0404 61.2588 93.2213 61.1799 93.3609 61.0514C93.5052 60.9203 93.6077 60.7415 93.6684 60.5151C93.7371 60.2585 93.7437 60.0379 93.688 59.8531C93.6361 59.6693 93.5179 59.5143 93.3334 59.388C93.1526 59.2628 92.9038 59.1577 92.5868 59.0727L91.4096 58.7573L89.5579 65.6678L87.86 65.2129L90.0681 56.9723L92.9432 57.7427C93.4224 57.8711 93.8385 58.0311 94.1916 58.2228C94.5484 58.4155 94.8341 58.6396 95.0487 58.8953C95.2633 59.1509 95.4024 59.439 95.4662 59.7594C95.531 60.076 95.5119 60.4267 95.4087 60.8116C95.3177 61.1512 95.1565 61.4436 94.9249 61.6889C94.6972 61.9352 94.3949 62.105 94.0181 62.1981C93.6451 62.2923 93.1938 62.2785 92.6643 62.1569L92.0551 62.4607ZM91.0125 66.0576L88.5052 65.3858L89.5223 64.2388L91.3674 64.7332C91.6654 64.8131 91.9214 64.8311 92.1354 64.7873C92.3503 64.7398 92.5253 64.6451 92.6604 64.5034C92.7954 64.3616 92.8917 64.1832 92.9494 63.9681C93.0141 63.7267 93.0287 63.5061 92.9932 63.3066C92.9615 63.108 92.8696 62.9378 92.7175 62.7959C92.5665 62.6503 92.3457 62.5386 92.0551 62.4607L90.4195 62.0225L90.7432 60.8596L92.7807 61.4055L93.0484 61.9686C93.5522 62.0955 93.9322 62.2924 94.1883 62.5592C94.4491 62.8232 94.6105 63.1191 94.6722 63.4471C94.7377 63.776 94.726 64.1065 94.6371 64.4386C94.4955 64.9668 94.2611 65.3812 93.9339 65.6818C93.6077 65.9785 93.1977 66.1578 92.704 66.2196C92.214 66.2825 91.6502 66.2284 91.0125 66.0576ZM99.9134 61.8791L98.2726 68.0029L96.6369 67.5646L98.2778 61.4408L99.9134 61.8791ZM98.6036 59.8175C98.6672 59.5798 98.8028 59.4058 99.0103 59.2956C99.2178 59.1854 99.4611 59.1677 99.7403 59.2425C100.016 59.3163 100.216 59.4528 100.34 59.652C100.469 59.8522 100.501 60.0711 100.437 60.3088C100.374 60.5465 100.236 60.72 100.025 60.8292C99.8174 60.9394 99.576 60.9576 99.3005 60.8838C99.0213 60.809 98.8194 60.672 98.6949 60.4728C98.5703 60.2736 98.5399 60.0552 98.6036 59.8175ZM103.34 60.0432L104.97 60.48L103.017 67.7697L102.476 69.1293L101.011 68.7365L103.34 60.0432ZM107.355 67.0879L107.323 67.2068C107.2 67.6633 107.039 68.069 106.839 68.4238C106.642 68.7796 106.407 69.0704 106.132 69.296C105.858 69.5178 105.552 69.6662 105.212 69.741C104.877 69.8131 104.51 69.7955 104.11 69.6884C103.736 69.5883 103.432 69.4259 103.197 69.2011C102.966 68.9774 102.795 68.7031 102.684 68.3781C102.573 68.0531 102.51 67.6906 102.496 67.2905C102.482 66.8904 102.505 66.4639 102.566 66.011L102.636 65.7507C102.809 65.3282 103.002 64.9472 103.215 64.6078C103.427 64.2683 103.663 63.9857 103.921 63.7598C104.18 63.5339 104.465 63.3818 104.777 63.3037C105.09 63.2256 105.43 63.236 105.8 63.3351C106.204 63.4433 106.534 63.6147 106.791 63.8492C107.052 64.0811 107.244 64.3628 107.365 64.6946C107.491 65.0237 107.55 65.3914 107.543 65.7977C107.54 66.2013 107.477 66.6314 107.355 67.0879ZM105.693 66.77L105.725 66.6512C105.791 66.4022 105.835 66.1632 105.856 65.9342C105.882 65.7025 105.873 65.492 105.831 65.3027C105.79 65.1097 105.707 64.9439 105.582 64.8054C105.461 64.6678 105.284 64.5677 105.05 64.505C104.827 64.4454 104.629 64.4326 104.454 64.4666C104.279 64.5006 104.122 64.5719 103.984 64.6804C103.849 64.7899 103.732 64.9325 103.633 65.108C103.534 65.2797 103.449 65.4754 103.378 65.695L103.18 66.4364C103.111 66.7375 103.089 67.0148 103.115 67.2682C103.144 67.5188 103.232 67.7345 103.378 67.9151C103.529 68.0929 103.751 68.2212 104.045 68.3001C104.275 68.3618 104.478 68.3675 104.653 68.3174C104.828 68.2673 104.98 68.1704 105.107 68.0266C105.239 67.8838 105.351 67.7057 105.445 67.4922C105.539 67.2749 105.622 67.0342 105.693 66.77ZM112.971 62.624L110.642 71.3173L109.006 70.879L111.336 62.1857L112.971 62.624ZM116.168 72.9193C115.693 72.7919 115.287 72.6022 114.95 72.3502C114.614 72.0944 114.35 71.7953 114.159 71.4529C113.971 71.1114 113.856 70.7428 113.812 70.3469C113.77 69.9473 113.803 69.5437 113.912 69.1362L113.973 68.9099C114.097 68.4458 114.277 68.039 114.512 67.6895C114.747 67.34 115.025 67.0566 115.347 66.8394C115.671 66.6231 116.031 66.487 116.427 66.4311C116.823 66.3715 117.243 66.4013 117.689 66.5206C118.122 66.6369 118.488 66.8117 118.786 67.045C119.083 67.2784 119.309 67.5575 119.465 67.8823C119.624 68.208 119.713 68.5715 119.731 68.9726C119.75 69.3699 119.699 69.7931 119.579 70.2421L119.397 70.9213L114.53 69.6171L114.821 68.5304L118.086 69.4054L118.12 69.2809C118.18 69.0545 118.193 68.8416 118.157 68.642C118.127 68.4396 118.044 68.2639 117.91 68.1148C117.777 67.9657 117.583 67.8572 117.33 67.7895C117.115 67.7319 116.918 67.7295 116.738 67.7824C116.558 67.8352 116.396 67.9334 116.252 68.0769C116.113 68.2215 115.987 68.4022 115.877 68.6192C115.771 68.8335 115.681 69.0765 115.609 69.3481L115.548 69.5745C115.482 69.8198 115.455 70.0553 115.468 70.281C115.484 70.5077 115.536 70.7137 115.624 70.899C115.715 71.0853 115.842 71.2448 116.005 71.3773C116.171 71.5109 116.374 71.6095 116.611 71.6732C116.906 71.7521 117.194 71.7688 117.477 71.7233C117.765 71.6751 118.033 71.5588 118.281 71.3744L118.842 72.447C118.665 72.5975 118.442 72.7278 118.174 72.8379C117.909 72.9491 117.608 73.0179 117.269 73.0445C116.931 73.0672 116.564 73.0255 116.168 72.9193Z" fill="black"/>
</svg>
