<svg width="204" height="160" viewBox="0 0 204 160" fill="none" xmlns="http://www.w3.org/2000/svg">
<path d="M45.0026 42.0029C45.1558 42.0466 45.2871 42.0685 45.3966 42.0685C45.4622 42.0685 45.506 42.0685 45.5717 42.0685C45.5936 42.0685 45.6373 42.0466 45.6373 42.0904V42.1123H45.6592C45.703 42.1123 45.7687 42.0685 45.9 42.0029C46.0532 41.8934 46.2283 41.784 46.4034 41.6745C46.7318 41.4557 47.0601 41.2149 47.3884 40.996C47.0601 41.0617 46.7318 41.1711 46.4253 41.2806C46.2721 41.3462 46.097 41.4119 45.9438 41.4776C45.8562 41.5213 45.7906 41.5432 45.703 41.587L45.5936 41.6526L45.5279 41.6745C45.4185 41.7183 45.3747 41.7402 45.3309 41.7402C45.309 41.7402 45.3309 41.7183 45.309 41.7183C45.2871 41.7402 45.2652 41.7402 45.2433 41.7621C45.112 41.8278 45.0464 41.8934 45.0026 42.0029Z" fill="#0055F9"/>
<path d="M47.3884 40.996C47.3884 40.996 47.3884 40.9741 47.4103 40.9741C47.3884 40.996 47.3884 40.996 47.3665 40.996C47.3665 41.0179 47.3884 40.996 47.3884 40.996Z" fill="#0055F9"/>
<path d="M170.642 115.196C170.62 115.218 170.598 115.24 170.576 115.261C170.555 115.283 170.533 115.305 170.489 115.327C170.423 115.371 170.379 115.437 170.314 115.48C170.379 115.458 170.445 115.415 170.489 115.349C170.511 115.327 170.533 115.305 170.576 115.283C170.598 115.261 170.62 115.218 170.642 115.196Z" fill="#0055F9"/>
<path d="M118.81 50.9331L119.752 50.4297C120.036 50.758 120.255 51.0425 120.386 51.2833C120.54 51.5241 120.627 51.6992 120.671 51.8524C120.78 52.1588 120.737 52.3339 120.693 52.509C120.649 52.6841 120.605 52.8373 120.693 53.1C120.78 53.3626 121.021 53.7128 121.481 54.3038C122.422 54.3914 123.057 55.4858 123.451 56.5583C123.494 56.6896 123.56 56.8209 123.604 56.9741C123.648 57.1054 123.691 57.2368 123.735 57.3681C123.823 57.6308 123.888 57.8715 123.976 58.0904C124.064 58.3093 124.129 58.5063 124.239 58.6595C124.326 58.8127 124.458 58.944 124.567 59.0097C124.501 59.0097 124.567 59.338 124.589 59.6444C124.589 59.9509 124.567 60.2573 124.326 60.3011C124.545 60.323 124.676 60.4324 124.786 60.5418C124.873 60.6732 124.939 60.8264 124.961 61.0015C125.027 61.3517 124.983 61.7676 125.158 62.1178C125.421 62.3366 125.377 61.877 125.552 61.6362C125.552 61.6362 125.596 61.7457 125.64 61.8989C125.683 62.0521 125.749 62.271 125.837 62.468C125.902 62.6868 125.946 62.8838 126.012 63.0589C126.034 63.1465 126.055 63.2122 126.055 63.2559C126.055 63.2997 126.077 63.3216 126.077 63.3216C125.858 64.022 125.399 64.1752 125.267 63.4967C125.267 63.628 125.267 63.7812 125.267 63.9563C125.267 64.1315 125.246 64.3066 125.246 64.5035C125.246 64.613 125.246 64.7005 125.246 64.81C125.246 64.9194 125.224 65.0289 125.224 65.1383C125.202 65.3791 125.202 65.6198 125.158 65.8825C125.049 66.9331 124.786 68.2026 124.348 69.691C124.304 69.8661 124.239 70.063 124.173 70.26C124.107 70.457 124.042 70.6321 123.976 70.8291C123.823 71.2231 123.691 71.6171 123.516 72.0111C123.188 72.8209 122.772 73.6526 122.334 74.5063C122.225 74.7252 122.094 74.9221 121.984 75.141C121.853 75.3599 121.721 75.5569 121.612 75.7758L121.415 76.1041L121.218 76.4105C121.087 76.6294 120.955 76.8264 120.802 77.0453C120.496 77.4611 120.211 77.8989 119.905 78.3366C119.576 78.7525 119.27 79.1903 118.92 79.6061C116.227 82.9331 112.769 85.9098 109.508 88.0767C106.268 90.2655 103.313 91.732 101.737 92.5418C102 92.5856 102.328 92.5418 102.657 92.4543C102.832 92.4105 103.007 92.3449 103.182 92.3011C103.357 92.2354 103.532 92.1697 103.729 92.1041C104.079 91.9728 104.452 91.8633 104.802 91.7977C105.152 91.732 105.48 91.732 105.765 91.8414C105.59 92.0165 105.415 92.1698 105.261 92.3011C105.086 92.4324 104.933 92.52 104.758 92.6075C104.43 92.7826 104.145 92.9139 103.882 93.0234C103.357 93.2423 102.941 93.3736 102.679 93.8113C102.35 93.5706 101.978 93.5487 101.497 93.5925C101.037 93.6581 100.512 93.8332 99.9863 94.0083C99.4391 94.1615 98.87 94.3366 98.3228 94.4242C97.7756 94.4899 97.2284 94.468 96.7687 94.2491C96.7687 94.2491 96.703 94.4899 96.6374 94.7306C96.5717 94.9714 96.506 95.2122 96.506 95.2122L95.4335 95.0371C95.1927 95.1465 94.952 95.2341 94.7331 95.3435C94.5142 95.431 94.2953 95.5186 94.0983 95.6061C93.7043 95.7594 93.3541 95.9126 93.0477 96.022C92.4129 96.2628 91.9751 96.4379 91.6249 96.5473C90.9464 96.81 90.7275 96.8538 90.5524 96.8975C90.3554 96.9194 90.2022 96.9194 89.6112 97.007C89.3047 97.0507 88.9108 97.1164 88.3198 97.204C88.0352 97.2477 87.7069 97.3134 87.3348 97.3572C86.9627 97.4228 86.5249 97.4885 86.0215 97.5542C83.767 98.0138 82.1035 98.5391 80.6588 98.955C80.3086 99.0644 79.9584 99.152 79.6082 99.2395C79.2799 99.3271 78.9296 99.3927 78.6232 99.4365C78.2949 99.5022 77.9665 99.5241 77.6601 99.546C77.3318 99.5678 77.0035 99.5678 76.6751 99.5241C77.0691 99.5022 78.1635 99.918 76.9378 100.224C76.8065 99.8743 75.9966 100.071 75.1211 100.246C74.2455 100.421 73.3043 100.597 72.9979 100.246C72.6914 100.29 72.2099 100.312 71.6846 100.356C71.1592 100.4 70.5683 100.421 70.0867 100.487C69.5833 100.553 69.1893 100.64 68.9923 100.772C68.7953 100.903 68.7953 101.078 69.1236 101.319C68.9485 101.209 68.6202 101.1 68.2481 101.012C68.073 100.969 67.876 100.925 67.7009 100.881C67.5258 100.837 67.3507 100.794 67.1974 100.75C66.6065 100.575 66.3219 100.4 67.1974 100.224C66.1906 100.181 65.3807 99.9837 64.8554 100.137C64.8554 100.137 64.8992 100.159 65.0086 100.203C65.0962 100.246 65.2056 100.29 65.3369 100.334C65.4683 100.378 65.5996 100.421 65.6871 100.465C65.7966 100.487 65.8622 100.509 65.8622 100.509C64.3738 100.487 63.6515 100.181 63.17 99.9837C63.1043 99.9618 63.0605 99.9399 62.9949 99.918C62.973 99.918 62.9511 99.8961 62.9073 99.8961C62.8854 99.8961 62.8635 99.8743 62.8635 99.8743C62.7979 99.8524 62.7322 99.8305 62.6447 99.8524C62.5133 99.8524 62.3601 99.918 62.1631 100.049C62.1631 100.049 62.1631 100.071 62.1631 100.115C62.1631 100.159 62.1631 100.224 62.185 100.268C62.2069 100.334 62.2069 100.4 62.2288 100.443C62.2507 100.487 62.2507 100.509 62.2507 100.509C61.9661 100.421 61.791 100.334 61.791 100.224C61.791 100.203 61.8129 100.159 61.8348 100.137V100.115L61.791 100.159C61.7691 100.203 61.7253 100.224 61.7034 100.268C61.6378 100.334 61.5721 100.4 61.5065 100.465C61.3751 100.597 61.2876 100.706 61.1781 100.794C61.1343 100.837 61.0687 100.881 61.0249 100.925C60.9811 100.969 60.9374 100.991 60.9155 101.034C60.9155 101.034 61.0249 100.947 61.1562 100.794C61.2438 100.728 61.3313 100.64 61.4189 100.531C61.5283 100.421 61.6159 100.312 61.7253 100.203C61.8348 100.093 61.9223 99.9618 62.0099 99.8524C62.0974 99.7429 62.185 99.6335 62.2507 99.546C62.3163 99.4584 62.382 99.3708 62.4258 99.3271L62.382 99.3927L62.2725 99.546C62.2069 99.6335 62.1193 99.7429 62.0537 99.8305C61.988 99.918 61.9004 100.006 61.8129 100.093C61.7472 100.181 61.6597 100.268 61.594 100.334C61.4408 100.509 61.3095 100.64 61.1562 100.794C61.003 100.947 60.8936 101.056 60.7404 101.166C60.215 101.625 59.7773 101.866 59.5365 101.997L59.4927 102.019L59.4708 102.041C59.5584 102.151 59.2519 101.779 59.6897 102.304L59.6678 102.282L59.6459 102.238L59.3395 101.779C59.3614 101.822 59.3833 101.888 59.4052 101.932C59.4052 101.954 59.4271 101.976 59.4271 102.019V102.063H59.4927L59.5584 102.041C59.7554 101.997 60.1713 101.932 60.7841 101.975C60.7841 101.975 60.7404 101.975 60.6528 101.975C60.5871 101.975 60.4558 101.975 60.3683 101.975C60.2807 101.975 60.1931 101.975 60.1275 101.975C60.0618 101.975 60.0399 101.975 60.018 101.975C60.3026 101.954 60.8498 101.91 61.791 102.063C61.9223 102.085 62.0318 102.107 62.1631 102.129C62.2288 102.151 62.2944 102.151 62.3601 102.172L62.4477 102.194C62.4039 102.194 62.4039 102.172 62.382 102.129C62.3382 102.063 62.3163 101.932 62.3382 101.779C62.3601 101.45 62.5352 100.925 62.8635 100.4C63.0168 100.137 63.2138 99.8743 63.4107 99.6116C63.4545 99.546 63.4983 99.4803 63.564 99.4365C63.6077 99.3708 63.6734 99.3271 63.7172 99.2614C63.761 99.1957 63.8266 99.152 63.8704 99.1082L63.9142 99.0644C63.9142 99.0425 63.9361 99.0425 63.958 99.0206L64.0893 98.9112C64.4395 98.6048 64.8335 98.3421 65.2275 98.0576C65.6434 97.7949 66.0374 97.5542 66.497 97.3353C67.3725 96.8756 68.2919 96.5035 69.2112 96.219C70.1305 95.9345 71.006 95.6937 71.7721 95.5186C72.5382 95.3435 73.1511 95.1903 73.567 95.0589C73.567 95.0589 73.4794 95.0152 73.3262 94.9276C73.1949 94.862 72.9979 94.7744 72.8228 94.6869C72.6258 94.5993 72.4507 94.5117 72.3193 94.4461C72.188 94.3804 72.0786 94.3366 72.0786 94.3366C72.0786 94.3366 72.2537 94.2929 72.5163 94.2272C72.779 94.1615 73.1292 94.074 73.4794 94.0083C73.8296 93.9427 74.2017 93.8551 74.4644 93.8113C74.7489 93.7676 74.924 93.7238 74.924 93.7238C74.7489 93.7238 74.3768 94.2929 74.0266 94.862C73.6764 95.431 73.37 95.9782 73.2386 95.8469C73.961 95.8469 75.0554 95.8469 76.5 95.9782C77.2223 96.0439 78.0322 96.1533 78.9077 96.2847C79.7833 96.4379 80.7464 96.613 81.7532 96.8537C82.7601 97.0945 83.8108 97.3791 84.9052 97.7293C85.1897 97.8168 85.4524 97.9044 85.7369 97.9919C86.0215 98.0795 86.2841 98.1889 86.5687 98.2765C87.1597 98.4953 87.7507 98.7142 88.3417 98.955C90.7494 99.8962 93.2228 101.012 95.6524 102.282C98.082 103.551 100.49 104.952 102.766 106.419C105.021 107.885 107.144 109.395 109.048 110.818C112.835 113.685 115.702 116.203 116.972 117.428C118.876 119.595 116.6 118.654 116.49 118.72C117.891 119.727 118.307 119.858 118.657 119.945C119.007 120.033 119.248 120.099 120.386 121.149C120.934 121.806 119.861 121.478 119.445 121.237C120.496 122.047 121.306 123.097 121.612 122.9C120.518 121.565 121.656 121.346 121.524 120.427L124.501 123.163L123.976 123.491C124.304 123.798 125.027 123.885 125.99 124.257C126.471 124.432 127.04 124.695 127.675 125.089C128.288 125.483 129.01 126.008 129.755 126.753C132.425 129.116 135.511 131.502 138.926 133.691L140.239 134.501L140.896 134.895L141.574 135.289C142.034 135.551 142.472 135.792 142.931 136.055C143.391 136.296 143.851 136.536 144.31 136.777C145.23 137.259 146.193 137.696 147.134 138.134C147.353 138.244 147.615 138.353 147.878 138.463C148.141 138.572 148.382 138.681 148.644 138.791C149.148 138.988 149.651 139.207 150.155 139.382C150.089 139.447 149.936 139.491 149.717 139.469C149.498 139.469 149.191 139.404 148.841 139.338C148.491 139.272 148.097 139.163 147.659 139.053C147.44 138.988 147.222 138.922 147.025 138.856C146.828 138.791 146.609 138.725 146.39 138.659C146.652 138.769 146.915 138.9 147.243 139.053C147.572 139.185 147.9 139.338 148.25 139.469C148.929 139.754 149.585 140.038 150.067 140.345C149.17 139.71 150.067 139.907 151.008 140.17C151.49 140.279 151.971 140.432 152.234 140.476C152.497 140.52 152.562 140.498 152.19 140.323C153.81 140.432 155.495 140.673 157.203 140.892C158.932 141.111 160.683 141.33 162.478 141.461C164.251 141.592 166.046 141.592 167.731 141.439C169.438 141.286 171.058 140.958 172.437 140.411C172.459 140.235 172.612 139.732 172.831 138.988C173.028 138.222 173.291 137.215 173.531 136.055C173.772 134.873 173.991 133.538 174.122 132.115C174.144 131.765 174.188 131.393 174.21 131.043C174.232 130.67 174.254 130.32 174.254 129.948C174.276 129.204 174.276 128.482 174.232 127.737C174.188 126.993 174.144 126.271 174.035 125.571C173.947 124.848 173.816 124.17 173.685 123.491C173.4 122.156 173.05 120.952 172.656 119.902C172.459 119.376 172.262 118.917 172.087 118.479C171.89 118.041 171.715 117.669 171.54 117.363C171.211 116.728 170.949 116.312 170.839 116.159C171.167 115.962 171.43 115.721 171.627 115.743C171.452 115.633 171.233 115.699 171.014 115.787C170.795 115.874 170.576 116.049 170.445 116.246C170.445 116.246 170.533 116.421 170.62 116.618C170.708 116.794 170.795 116.991 170.795 116.991C170.379 117.385 170.248 117.319 170.117 117.209C170.051 117.144 170.007 117.1 169.876 117.078C169.767 117.056 169.613 117.1 169.329 117.209C169.176 116.903 169.351 116.618 169.613 116.378C169.854 116.115 170.182 115.896 170.423 115.677C170.161 115.809 169.81 115.852 169.548 115.94C169.504 115.962 169.482 115.962 169.46 115.984C169.416 116.006 169.394 116.006 169.373 116.027C169.307 116.049 169.263 116.093 169.219 116.159C169.11 116.246 169.066 116.4 169.044 116.597C168.628 116.597 168.585 116.4 168.519 116.203C168.453 116.006 168.388 115.809 167.906 115.809C167.622 115.984 167.228 116.29 166.746 116.487C166.286 116.684 165.717 116.794 165.192 116.597L165.214 116.487C163.944 116.159 162.872 116.29 161.777 116.356C161.23 116.378 160.661 116.378 160.092 116.29C159.523 116.181 158.932 115.984 158.363 115.59C158.363 115.59 158.45 115.568 158.538 115.546C158.625 115.524 158.713 115.48 158.713 115.48C158.625 115.393 158.516 115.327 158.385 115.24C158.253 115.174 158.122 115.108 157.969 115.043C157.64 114.889 157.268 114.736 156.852 114.561C155.999 114.211 155.036 113.707 154.204 113.007C154.664 113.423 154.904 114.101 153.722 113.532C153.482 113.313 153.241 113.116 153 112.941C152.759 112.766 152.54 112.613 152.3 112.416C152.059 112.241 151.84 112.088 151.621 111.934C151.512 111.869 151.402 111.781 151.293 111.716C151.183 111.628 151.074 111.562 150.964 111.475C150.111 110.862 149.323 110.249 148.644 109.417C148.644 109.417 148.141 109.22 147.637 109.045C147.375 108.958 147.134 108.848 146.937 108.783C146.74 108.695 146.609 108.651 146.609 108.651C146.346 108.432 146.083 108.214 145.777 107.973C145.47 107.71 145.142 107.447 144.792 107.141C144.442 106.856 144.07 106.528 143.654 106.178C143.26 105.828 142.822 105.478 142.384 105.105C140.589 103.573 138.444 101.691 135.905 99.5241C130.783 95.1465 124.392 90.0904 117.322 85.5596C113.798 83.3052 110.099 81.1602 106.356 79.3216C102.635 77.4611 98.8919 75.8852 95.3459 74.6157C91.6687 73.3025 88.1447 72.3832 85.0365 71.7922C81.9283 71.1793 79.2361 70.8948 77.2223 70.7635C77.2223 70.7635 77.3756 70.7416 77.5507 70.7416C77.7039 70.7197 77.879 70.7197 77.879 70.7197C74.8365 70.5008 71.2687 70.457 67.2412 70.9823C65.2275 71.245 63.1043 71.6609 60.9155 72.2737C58.7266 72.8866 56.4502 73.7183 54.2176 74.8127C53.6485 75.0754 53.1013 75.3818 52.5322 75.6882C51.985 75.9946 51.4159 76.323 50.8687 76.6513C50.606 76.8264 50.3215 77.0015 50.0588 77.1766L49.6429 77.4392L49.1833 77.7457C48.8768 77.9646 48.5704 78.1616 48.2858 78.4023C48.0013 78.6212 47.6949 78.8401 47.4103 79.0808C45.112 80.9194 43.0983 83.0425 41.3472 85.4721C39.5961 87.9235 38.0858 90.7033 37.0352 93.9646C36.5099 95.5842 36.1159 97.3572 35.9189 99.2176C35.7219 101.078 35.7 103.07 35.9627 105.084C36.0283 105.587 36.1159 106.09 36.2034 106.594C36.3129 107.097 36.4223 107.601 36.5537 108.104L36.882 109.22L36.9476 109.417L37.0352 109.658C37.1446 109.965 37.2541 110.293 37.3854 110.599L37.5605 111.059L37.6043 111.168L37.6262 111.212L37.67 111.278L37.867 111.737C37.8232 111.65 38.1953 112.504 38.064 112.153L38.2172 112.46C38.4579 112.919 38.6768 113.379 38.9395 113.817C39.2022 114.255 39.4429 114.692 39.7275 115.108C40.012 115.524 40.2966 115.94 40.5811 116.312C41.7631 117.888 43.0545 119.245 44.4116 120.383C45.7687 121.543 47.1476 122.506 48.5704 123.316C49.9713 124.126 51.4159 124.805 52.8386 125.352C53.1889 125.483 53.561 125.614 53.9112 125.746C54.2614 125.877 54.6335 125.986 54.9837 126.096C55.6841 126.315 56.3627 126.49 57.0193 126.643C59.6897 127.256 62.1412 127.497 64.3082 127.606C66.497 127.716 68.4013 127.65 70.0867 127.606C70.9404 127.562 71.7721 127.54 72.582 127.497C73.4138 127.453 74.2236 127.387 75.0116 127.343C78.1854 127.103 81.1623 126.753 83.7889 126.359C84.2047 126.402 84.6425 126.402 85.1022 126.424C85.5618 126.424 86.0215 126.402 86.503 126.38C87.4442 126.337 88.4511 126.227 89.4361 126.096C90.4211 125.986 91.4279 125.811 92.391 125.658C93.3541 125.505 94.2953 125.33 95.1708 125.198C93.2009 125.33 93.77 124.739 95.2584 124.476C96.5717 124.17 97.5567 123.973 98.3009 123.754C99.0451 123.557 99.5704 123.404 99.9206 123.294C100.621 123.075 100.709 122.966 100.774 122.856C100.84 122.747 100.927 122.638 101.628 122.353C102.328 122.069 103.664 121.587 106.246 120.624C106.618 120.471 107.012 120.318 107.45 120.142C107.888 119.967 108.348 119.77 108.829 119.573C109.311 119.376 109.836 119.157 110.383 118.917C110.93 118.676 111.5 118.435 112.091 118.172C114.455 117.1 117.147 115.765 120.036 114.123C122.903 112.482 125.924 110.49 128.923 108.17C131.922 105.85 134.855 103.201 137.569 100.246C138.926 98.7799 140.217 97.2477 141.421 95.6499C141.728 95.2559 142.012 94.862 142.318 94.4461L142.756 93.8332C142.888 93.6362 143.041 93.4174 143.172 93.2204C143.457 92.8045 143.719 92.4105 144.004 91.9946C144.288 91.5788 144.529 91.1629 144.792 90.747C145.821 89.0617 146.784 87.3763 147.594 85.6691C147.703 85.4502 147.812 85.2532 147.9 85.0343C148.009 84.8154 148.097 84.5966 148.185 84.3996C148.382 83.9618 148.557 83.546 148.754 83.1301C149.104 82.2765 149.454 81.4447 149.761 80.5911C149.914 80.1752 150.067 79.7594 150.22 79.3435C150.352 78.9276 150.483 78.5117 150.614 78.1178C150.68 77.9208 150.746 77.7019 150.811 77.5049C150.877 77.3079 150.921 77.089 150.986 76.892C151.096 76.4981 151.205 76.0822 151.315 75.7101C151.512 74.9221 151.709 74.1561 151.862 73.39C152.015 72.6239 152.168 71.9016 152.278 71.2012C152.387 70.5008 152.497 69.8223 152.562 69.1656C152.628 68.509 152.694 67.8962 152.759 67.3271C152.847 66.1451 152.912 65.1383 152.912 64.2847C152.847 63.825 152.803 63.3654 152.715 62.8838C152.65 62.4242 152.562 61.9427 152.497 61.4611C152.431 60.9796 152.343 60.4981 152.256 60.0165C152.212 59.7758 152.168 59.535 152.125 59.2942C152.081 59.0535 152.037 58.8127 151.993 58.5719C151.621 56.6239 151.161 54.6321 150.592 52.7279C150.023 50.8236 149.345 48.9632 148.557 47.2559C147.769 45.5487 146.893 43.9728 145.952 42.6157C145.952 42.6157 146.083 42.7252 146.215 42.8565C146.346 42.9659 146.477 43.0972 146.477 43.0972C145.536 41.5651 143.566 38.26 140.611 34.6267C139.145 32.81 137.415 30.9057 135.533 29.0234C133.651 27.1629 131.571 25.3243 129.426 23.6171C128.901 23.1793 128.354 22.7853 127.806 22.3695C127.259 21.9536 126.712 21.5596 126.165 21.1875C125.618 20.8154 125.07 20.4215 124.545 20.0494C124.282 19.8524 123.998 19.6773 123.735 19.5022C123.473 19.3271 123.188 19.152 122.925 18.9769C122.378 18.6267 121.853 18.2765 121.306 17.9481C120.758 17.6198 120.233 17.3134 119.708 16.9851C118.657 16.3503 117.606 15.8031 116.621 15.2559C112.638 13.1328 109.223 11.7758 107.472 11.1848L108.348 11.6882C106.794 11.2067 105.699 10.8784 104.846 10.55C104.43 10.3968 104.058 10.2217 103.751 10.0904C103.423 9.93719 103.138 9.80586 102.854 9.65265C102.306 9.36811 101.803 9.06168 101.124 8.71147C100.446 8.38315 99.6142 8.01106 98.3884 7.59519C98.476 7.90162 98.2133 8.05484 97.7099 8.14239C97.2065 8.22994 96.4842 8.25183 95.6962 8.20805C95.3022 8.18616 94.8863 8.16428 94.4704 8.1205C94.0545 8.09861 93.6386 8.05484 93.2228 8.03295C92.4129 7.96729 91.6906 7.87973 91.1653 7.79218L91.2747 7.57331C90.4867 7.48575 89.4361 7.42009 88.2103 7.35443C87.5975 7.33254 86.9627 7.33254 86.2841 7.31065C85.6056 7.31065 84.9052 7.28876 84.2047 7.31065C83.4824 7.33254 82.7601 7.33254 82.0159 7.35443C81.6438 7.35443 81.2717 7.37631 80.9215 7.3982C80.5494 7.42009 80.1773 7.44198 79.8271 7.44198C78.3605 7.48575 76.9378 7.61708 75.6245 7.66086L75.8215 7.06989C75.2743 7.15744 74.6614 7.24499 74.0266 7.33254C73.37 7.42009 72.6914 7.50764 71.9691 7.57331C71.2468 7.68274 70.5245 7.7703 69.7803 7.85785C69.4082 7.90162 69.0361 7.9454 68.664 7.98917C68.2919 8.05484 67.9198 8.09861 67.5477 8.16428C66.8035 8.27372 66.0811 8.36127 65.3807 8.49259C64.6803 8.62392 64.0017 8.73336 63.367 8.86469C63.0605 8.93035 62.7541 8.97413 62.4477 9.03979C62.1631 9.10545 61.8786 9.17112 61.6159 9.23678C61.0906 9.34622 60.6309 9.45566 60.2588 9.5651C56.7348 10.2874 52.2477 11.338 47.6292 13.1547C47.3446 13.2641 47.0382 13.3736 46.7537 13.5049C46.4691 13.6362 46.1846 13.7457 45.9 13.877C45.3309 14.1397 44.7399 14.4023 44.1708 14.6431C43.6017 14.9057 43.0326 15.2122 42.4635 15.4967C41.8944 15.8031 41.3253 16.0877 40.7781 16.416C38.5674 17.7074 36.4442 19.152 34.5618 20.7498C34.5618 20.7498 34.1678 20.903 33.5987 21.1219C33.3142 21.2313 32.964 21.3626 32.6137 21.5159C32.2635 21.6691 31.8914 21.8442 31.4974 22.0193C31.1253 22.1944 30.7313 22.3695 30.3811 22.5227C30.206 22.6102 30.0309 22.6759 29.8558 22.7635C29.7682 22.8072 29.7026 22.8291 29.615 22.8729C29.5712 22.8948 29.5494 22.8948 29.5056 22.9386C29.4618 22.9604 29.418 22.9823 29.3743 23.0042C29.2867 23.048 29.1991 23.0918 29.1335 23.1355C29.0459 23.1793 28.9803 23.2231 28.8927 23.2669C28.827 23.3107 28.7395 23.3544 28.6738 23.3982C28.6082 23.442 28.5425 23.4858 28.4768 23.5295C28.3674 23.5952 28.2798 23.6609 28.2142 23.7046C28.1485 23.7484 28.1047 23.7703 28.1047 23.7703C28.1047 23.7703 28.0391 23.836 27.9515 23.9673C27.9077 24.0329 27.8421 24.0986 27.7983 24.1643C27.7545 24.2299 27.6888 24.2956 27.6451 24.3613C27.4262 24.6458 27.2292 24.9304 27.2292 24.9304C27.2292 24.9304 27.2949 25.3243 27.4481 25.981C27.6232 26.6376 27.9077 27.535 28.3674 28.5637C28.827 29.5925 29.4837 30.7306 30.3155 31.825C31.1472 32.9413 32.2197 34.0357 33.3579 34.9987C33.6206 35.2395 33.9052 35.4584 34.1897 35.6992C34.4743 35.918 34.7588 36.1588 35.0215 36.3558C35.5687 36.7717 36.1159 37.1438 36.685 37.494C37.2541 37.8442 37.8232 38.1506 38.4142 38.4351C38.5674 38.5008 38.6987 38.5665 38.8519 38.6321C38.9176 38.654 39.0052 38.6978 39.0708 38.7197C39.1365 38.7416 39.2022 38.7853 39.2678 38.8072C39.5305 38.9386 39.7931 39.048 40.0558 39.1574C41.0846 39.6171 42.0914 39.9892 42.9888 40.3613C43.361 40.5145 43.7768 40.6677 44.2365 40.8647C44.324 40.9085 44.3897 40.996 44.4773 41.0179C44.521 41.0398 44.5648 41.0617 44.6086 41.0836C44.6524 41.1054 44.6961 41.1054 44.7618 41.1273C44.8056 41.1492 44.8713 41.1492 44.915 41.1492C44.9807 41.1492 45.0245 41.1492 45.112 41.1492C45.2652 41.1273 45.4185 41.1055 45.5498 41.0617L45.8125 41.587L47.082 40.4707C47.9794 39.9673 48.5266 39.4639 48.8768 39.1355C49.227 38.8291 49.4022 38.6978 49.4897 38.9604C49.4897 38.9604 49.3365 39.048 49.1176 39.1793C48.8987 39.3107 48.6142 39.5295 48.3296 39.7265C48.0451 39.9235 47.7605 40.1205 47.5416 40.2737C47.4322 40.3394 47.3446 40.405 47.279 40.4488C47.2133 40.4926 47.1914 40.5145 47.1914 40.5145C48.067 39.9673 48.264 39.9892 48.1764 40.2081C48.1326 40.3175 48.0232 40.4926 47.9137 40.6677C47.7824 40.8428 47.6511 41.0398 47.5635 41.2368C47.7386 41.1054 47.9137 40.996 48.0889 40.9085C48.264 40.799 48.4391 40.7115 48.6142 40.602C48.9644 40.405 49.2927 40.2518 49.5992 40.1205C49.7961 39.7046 49.227 40.0986 48.8987 40.1862C49.0957 39.9892 49.2708 39.7484 49.4897 39.5076C49.7086 39.2669 49.9494 39.0261 50.1901 38.7853C50.4309 38.5446 50.6936 38.3038 51 38.1068C51.2846 37.9098 51.591 37.7566 51.9193 37.6472C52.8386 37.1219 52.97 37.3189 53.167 37.494C53.3421 37.6691 53.5828 37.8223 54.6554 37.2751C60.3901 34.5172 66.6721 33.0288 72.9541 32.6349C73.3481 32.613 73.7421 32.5692 74.1361 32.5692L75.3181 32.5473C76.106 32.5035 76.894 32.5473 77.682 32.5473H78.273L78.864 32.5911L80.0459 32.6568C80.4399 32.6568 80.8339 32.7224 81.2279 32.7443L82.4099 32.8537C85.5837 33.1821 88.7794 33.7949 91.9751 34.6267C92.194 34.9331 91.8657 34.8455 91.4717 34.8455C91.9532 34.955 92.4348 35.0644 92.9163 35.152C93.3979 35.2614 93.8356 35.3927 94.2953 35.5241C95.2146 35.7648 96.0902 36.0713 96.9657 36.3558C97.4035 36.4871 97.8412 36.6622 98.2571 36.8154C98.6949 36.9687 99.1108 37.1219 99.5485 37.297C99.9644 37.4721 100.402 37.6472 100.818 37.8004L101.453 38.0412C101.672 38.1287 101.869 38.2163 102.088 38.3038C102.897 38.9823 102.985 39.4201 103.138 39.7703C103.094 39.6827 103.357 39.7484 103.817 39.9454C104.058 40.0548 104.342 40.1862 104.67 40.3394C104.846 40.4269 105.021 40.4926 105.218 40.602C105.415 40.7115 105.59 40.799 105.809 40.9085C106.224 41.1273 106.662 41.3681 107.144 41.6308C107.603 41.9153 108.107 42.1998 108.61 42.5063C109.136 42.8127 109.639 43.1629 110.164 43.5131C110.427 43.6882 110.69 43.8633 110.952 44.0384C111.215 44.2135 111.456 44.3886 111.718 44.5856C113.732 46.0302 115.615 47.6718 116.884 48.9413C118.044 49.9262 118.788 50.8674 118.81 50.9331Z" fill="#0055F9"/>
<path d="M81.7621 90.3117L98.8754 85.7233L115.989 81.1349L128.713 138.116L118.896 140.891L110.573 98.6348L92.5245 103.97L88.8047 149.641L76.6401 154.976L81.7621 90.3117Z" fill="#F7F3EE"/>
<path d="M93.7132 96.2872L98.8754 85.7233L108.012 92.4458M93.7132 96.2872L108.012 92.4458M93.7132 96.2872L92.5245 103.97M108.012 92.4458L110.573 98.6348M110.573 98.6348L118.896 140.891L128.713 138.116L115.989 81.1349L81.7621 90.3117L76.6401 154.976L88.8047 149.641L92.5245 103.97M110.573 98.6348L92.5245 103.97" stroke="black" stroke-width="2"/>
<path d="M130.634 6.01333C128.286 5.37309 42.7073 27.9949 41 29.9156C42.6362 52.1107 46.3353 96.7141 48.0426 97.5677C50.1768 98.6348 134.475 76.6532 135.756 74.3057C137.036 71.9581 132.981 6.65357 130.634 6.01333Z" fill="#F7F3EE" stroke="black" stroke-width="2"/>
<path d="M127.942 8.58689C125.738 7.98429 45.3776 29.276 43.7744 31.0838C45.3108 51.9738 48.7844 93.9546 50.3876 94.758C52.3916 95.7624 131.549 75.0732 132.752 72.8637C133.954 70.6542 130.147 9.18949 127.942 8.58689Z" fill="#F7F3EE" stroke="black"/>
<path d="M66.6096 52.324L71.0913 37.5985L80.4815 49.1228L66.6096 52.324Z" fill="#F7F3EE" stroke="black" stroke-width="1.5" stroke-linejoin="round"/>
<circle cx="78.7743" cy="49.9765" r="4.37193" fill="#F7F3EE" stroke="black" stroke-width="1.5"/>
<path d="M108.562 36.5794C108.369 36.6312 108.17 36.6472 107.966 36.6273C107.768 36.5976 107.601 36.5471 107.466 36.4756C107.331 36.4042 107.255 36.321 107.238 36.2262C107.212 36.1005 107.229 35.9925 107.287 35.9023C107.346 35.812 107.463 35.7557 107.64 35.7333C107.917 35.717 108.189 35.6649 108.455 35.577C108.719 35.4813 108.956 35.36 109.165 35.2128C109.382 35.0637 109.544 34.896 109.651 34.7098C109.806 34.453 109.869 34.254 109.839 34.1128C109.808 33.964 109.66 33.8461 109.397 33.7593C109.278 33.7167 109.136 33.6842 108.973 33.6617C108.81 33.6392 108.65 33.6322 108.495 33.6406C108.346 33.6392 108.218 33.6569 108.112 33.6936C108.044 33.72 107.956 33.7312 107.847 33.7272C107.737 33.7155 107.624 33.696 107.509 33.6688C107.448 33.6272 107.382 33.5497 107.31 33.4364C107.238 33.3231 107.19 33.2531 107.167 33.2263C107.149 33.1898 107.163 33.1362 107.211 33.0655C107.258 32.9948 107.36 32.8806 107.516 32.7227C107.671 32.5571 107.9 32.3301 108.203 32.0416C108.48 31.777 108.691 31.5755 108.836 31.4372C108.987 31.2891 109.102 31.1756 109.18 31.0967C109.264 31.0079 109.332 30.9233 109.385 30.8429C109.449 30.7098 109.47 30.6173 109.448 30.5653C109.425 30.5133 109.309 30.4949 109.097 30.5101C108.9 30.5464 108.746 30.5878 108.634 30.6343C108.52 30.6731 108.467 30.7079 108.475 30.7388C108.475 30.7388 108.472 30.7399 108.464 30.7419C108.464 30.7419 108.452 30.745 108.429 30.7513C108.386 30.7462 108.302 30.7728 108.177 30.8312C108.052 30.8896 107.932 30.9508 107.816 31.0148C107.709 31.0768 107.654 31.1204 107.653 31.1456C107.649 31.1632 107.602 31.2047 107.512 31.2703C107.428 31.326 107.338 31.3789 107.244 31.429C107.158 31.4771 107.103 31.5042 107.08 31.5104C107.037 31.5053 106.976 31.4636 106.897 31.3854C106.826 31.3051 106.761 31.2189 106.703 31.1267C106.644 31.0268 106.616 30.9554 106.621 30.9127C106.628 30.8776 106.67 30.8168 106.746 30.7301C106.828 30.6336 106.921 30.5341 107.027 30.4314C107.129 30.321 107.218 30.2351 107.293 30.1737C107.393 30.1138 107.544 30.0443 107.746 29.9652C107.954 29.8763 108.161 29.7962 108.365 29.7248C108.575 29.6436 108.728 29.5945 108.823 29.5774C109.188 29.5208 109.499 29.5369 109.755 29.6257C110.009 29.7069 110.208 29.8937 110.352 30.1862C110.405 30.2882 110.435 30.4002 110.442 30.5224C110.45 30.6445 110.431 30.7739 110.385 30.9105C110.339 31.0471 110.257 31.2057 110.14 31.3862C109.98 31.5616 109.857 31.7063 109.771 31.8202C109.692 31.9244 109.574 32.0428 109.419 32.1755C109.376 32.2286 109.302 32.2939 109.199 32.3713C109.095 32.4487 108.998 32.5202 108.908 32.5858C108.818 32.6513 108.775 32.6918 108.779 32.7073C108.779 32.7073 108.816 32.7057 108.89 32.7025C108.969 32.6895 109.054 32.6832 109.146 32.6836C109.243 32.6743 109.315 32.6837 109.364 32.712C109.609 32.7292 109.85 32.8096 110.087 32.9531C110.33 33.0868 110.505 33.1973 110.611 33.2848C110.784 33.4954 110.866 33.755 110.857 34.0637C110.854 34.3626 110.783 34.6675 110.643 34.9784C110.508 35.2795 110.327 35.5474 110.1 35.7822C109.917 35.9638 109.674 36.1241 109.372 36.2631C109.075 36.3923 108.805 36.4977 108.562 36.5794Z" fill="#F7F3EE"/>
<path d="M107.529 38.4375C107.482 38.45 107.423 38.4616 107.352 38.4725C107.282 38.4912 107.201 38.4964 107.107 38.4883C106.992 38.5194 106.892 38.5172 106.808 38.4817C106.733 38.4519 106.673 38.4141 106.628 38.3683C106.512 38.2751 106.493 38.1891 106.571 38.1102C106.657 38.0292 106.839 37.9349 107.117 37.8274C107.24 37.7613 107.427 37.6863 107.678 37.6025C107.934 37.509 108.216 37.4169 108.523 37.3263C108.828 37.2281 109.115 37.1388 109.383 37.0586C109.659 36.9764 109.874 36.9145 110.029 36.8731C110.23 36.8193 110.385 36.7944 110.493 36.7984C110.6 36.7946 110.707 36.8239 110.815 36.8861C110.962 36.9709 111.022 37.0873 110.996 37.2353C110.967 37.3755 110.86 37.4539 110.674 37.4706C110.635 37.481 110.563 37.5045 110.456 37.5412C110.35 37.578 110.233 37.6178 110.103 37.6607C109.982 37.7016 109.876 37.7383 109.785 37.7708C109.739 37.7833 109.62 37.8192 109.429 37.8787C109.238 37.9382 109.016 38.006 108.763 38.082C108.51 38.1581 108.267 38.2272 108.036 38.2893C107.806 38.3591 107.637 38.4086 107.529 38.4375Z" fill="#F7F3EE"/>
<path d="M108.443 41.4481C108.408 41.4409 108.343 41.4129 108.247 41.3641C108.159 41.3132 108.069 41.2545 107.976 41.1882C107.882 41.1141 107.817 41.0569 107.781 41.0168C107.748 40.9844 107.729 40.9148 107.725 40.8082C107.729 40.6994 107.747 40.6409 107.778 40.6326C107.805 40.6419 107.829 40.6065 107.849 40.5266C107.869 40.4467 107.888 40.363 107.906 40.2754C107.921 40.18 107.927 40.1246 107.923 40.1091C107.923 40.0762 107.936 40.0478 107.962 40.0241C107.995 39.9905 108.023 39.958 108.048 39.9266C108.07 39.8544 108.104 39.7791 108.149 39.7007C108.2 39.6125 108.239 39.5401 108.265 39.4834C108.306 39.3895 108.387 39.2436 108.508 39.0456C108.629 38.8475 108.745 38.6467 108.856 38.443C108.97 38.2218 109.072 38.0289 109.16 37.8644C109.247 37.6922 109.287 37.578 109.28 37.5219C109.28 37.5219 109.288 37.5072 109.305 37.4778C109.328 37.4386 109.355 37.4022 109.388 37.3687C109.42 37.3352 109.46 37.2831 109.507 37.2124C109.562 37.1397 109.607 37.0739 109.641 37.0151C109.64 36.9492 109.656 36.8703 109.689 36.7785C109.728 36.677 109.776 36.5772 109.833 36.4792C109.87 36.3699 109.901 36.2539 109.926 36.1313C109.949 36.0009 109.961 35.9065 109.962 35.8483C109.962 35.7571 109.941 35.7089 109.898 35.7038C109.853 35.691 109.739 35.6803 109.554 35.6718C109.352 35.6597 109.175 35.6946 109.023 35.7768C108.871 35.8589 108.686 36.0328 108.467 36.2984C108.365 36.3506 108.273 36.4084 108.191 36.4719C108.116 36.5333 108.047 36.5684 107.983 36.5773C107.948 36.5701 107.904 36.5447 107.851 36.5009C107.798 36.4572 107.742 36.4183 107.683 36.3844L107.433 35.917L107.74 35.6237C108.003 35.3379 108.264 35.1065 108.523 34.9294C108.788 34.7425 109.037 34.6549 109.272 34.6665C109.357 34.6437 109.438 34.6346 109.514 34.6391C109.587 34.6359 109.624 34.6343 109.624 34.6343C109.684 34.6101 109.781 34.6171 109.916 34.6556C110.058 34.6921 110.201 34.7488 110.346 34.826C110.499 34.901 110.613 34.9864 110.688 35.0822C110.862 35.2345 110.968 35.4462 111.008 35.7172C111.047 35.9882 111.008 36.2925 110.892 36.6302C110.866 36.6869 110.807 36.8063 110.715 36.9883C110.623 37.1704 110.516 37.3769 110.396 37.6079C110.281 37.8291 110.173 38.0279 110.071 38.2042C109.977 38.3785 109.916 38.4902 109.888 38.5392C109.84 38.5768 109.767 38.6751 109.669 38.8339C109.578 38.9907 109.48 39.166 109.375 39.3599C109.275 39.544 109.19 39.7075 109.121 39.8503C109.057 39.9833 109.033 40.0478 109.049 40.0436C109.049 40.0766 109.088 40.0663 109.164 40.0126C109.247 39.9491 109.32 39.8964 109.383 39.8546C109.489 39.7849 109.614 39.7139 109.761 39.6416C109.913 39.5595 110.067 39.4851 110.223 39.4184C110.379 39.3518 110.514 39.299 110.628 39.2603C110.749 39.2194 110.825 39.2075 110.854 39.2244C110.88 39.2589 110.896 39.2713 110.901 39.2615C110.913 39.2419 110.918 39.2321 110.918 39.2321C110.919 39.1738 111.012 39.1325 111.196 39.1081C111.387 39.0816 111.563 39.0718 111.722 39.0788C111.813 39.0792 111.887 39.0926 111.944 39.1188C112.008 39.1429 112.045 39.1704 112.053 39.2013C112.053 39.2013 112.066 39.2186 112.092 39.2531C112.123 39.2778 112.169 39.311 112.23 39.3526C112.381 39.42 112.41 39.5281 112.317 39.6772C112.232 39.8242 112.028 39.912 111.704 39.9407C111.503 39.9946 111.34 40.0507 111.215 40.1091C111.189 40.1328 111.125 40.1581 111.024 40.185C110.924 40.212 110.828 40.2417 110.738 40.2743C110.595 40.2961 110.458 40.3411 110.327 40.4093C110.194 40.4697 110.039 40.5567 109.862 40.6703C109.799 40.7121 109.7 40.7759 109.566 40.8616C109.431 40.9473 109.285 41.0361 109.128 41.128C108.97 41.22 108.825 41.2961 108.692 41.3566C108.567 41.415 108.484 41.4455 108.443 41.4481Z" fill="#F7F3EE"/>
<path d="M114.269 58.1983C114.25 58.2199 114.193 58.2393 114.098 58.2564C114.011 58.2715 113.912 58.2732 113.801 58.2614C113.7 58.2554 113.616 58.2364 113.55 58.2045C113.511 58.1819 113.47 58.1554 113.429 58.1251C113.386 58.087 113.35 58.0138 113.321 57.9057C113.299 57.7954 113.28 57.6143 113.262 57.3623C113.252 57.1995 113.247 57.0269 113.248 56.8444C113.248 56.662 113.252 56.5038 113.257 56.3698C113.263 56.2358 113.265 56.1688 113.265 56.1688C113.3 56.143 113.323 56.0126 113.334 55.7776C113.354 55.5405 113.368 55.255 113.378 54.9211C113.38 54.8046 113.386 54.6085 113.395 54.3328C113.403 54.0571 113.414 53.7891 113.428 53.5289C113.437 53.2861 113.456 53.0947 113.485 52.9545C113.514 52.8143 113.528 52.7442 113.528 52.7442C113.528 52.7442 113.489 52.7836 113.411 52.8626C113.332 52.9415 113.232 53.047 113.11 53.1791C112.988 53.3112 112.863 53.4608 112.734 53.6279C112.623 53.7403 112.501 53.8889 112.368 54.0735C112.241 54.2484 112.12 54.397 112.003 54.5192C111.838 54.7374 111.723 54.88 111.658 54.9471C111.601 55.0121 111.533 55.0346 111.453 55.0146C111.33 54.9565 111.2 54.8588 111.064 54.7213C110.933 54.5741 110.881 54.4556 110.906 54.3659C110.92 54.3541 110.961 54.3058 111.029 54.2212C111.105 54.1346 111.19 54.0332 111.283 53.9172C111.376 53.8011 111.46 53.6959 111.534 53.6015C111.616 53.505 111.673 53.44 111.705 53.4065C111.728 53.4003 111.764 53.3618 111.811 53.2912C111.858 53.2205 111.911 53.1527 111.968 53.0877C111.994 53.031 112.101 52.8904 112.289 52.666C112.478 52.4416 112.68 52.1928 112.897 51.9194C113.135 51.665 113.352 51.4537 113.547 51.2855C113.742 51.1173 113.856 51.0329 113.889 51.0323C113.912 51.0261 113.974 51.0387 114.073 51.07C114.18 51.0992 114.286 51.1372 114.389 51.184C114.493 51.2308 114.555 51.2763 114.575 51.3206C114.636 51.3623 114.646 51.4921 114.605 51.7102C114.593 51.788 114.577 51.929 114.557 52.133C114.535 52.3294 114.513 52.5588 114.493 52.8211C114.478 53.0736 114.462 53.3261 114.447 53.5787C114.438 53.8214 114.432 54.0301 114.429 54.2048C114.431 54.4609 114.423 54.6619 114.404 54.8078C114.393 54.9516 114.38 55.0915 114.367 55.2275C114.36 55.3538 114.357 55.5285 114.359 55.7516C114.338 55.8898 114.322 56.0637 114.312 56.2735C114.308 56.4734 114.307 56.6723 114.31 56.8702C114.312 57.0604 114.316 57.2165 114.324 57.3386C114.308 57.5252 114.302 57.7048 114.307 57.8774C114.312 58.0501 114.299 58.157 114.269 58.1983Z" fill="#F7F3EE"/>
<path d="M111.797 60.2057C111.75 60.2182 111.691 60.2298 111.62 60.2407C111.55 60.2594 111.469 60.2646 111.376 60.2565C111.26 60.2875 111.16 60.2853 111.076 60.2499C111.001 60.2201 110.942 60.1823 110.896 60.1365C110.78 60.0433 110.761 59.9573 110.839 59.8784C110.925 59.7974 111.107 59.7031 111.385 59.5956C111.508 59.5295 111.695 59.4545 111.946 59.3707C112.202 59.2771 112.484 59.1851 112.791 59.0945C113.096 58.9963 113.383 58.907 113.651 58.8268C113.927 58.7446 114.143 58.6827 114.297 58.6413C114.498 58.5875 114.653 58.5625 114.762 58.5665C114.868 58.5628 114.975 58.5921 115.083 58.6543C115.23 58.7391 115.29 58.8555 115.264 59.0035C115.235 59.1437 115.128 59.2221 114.942 59.2388C114.903 59.2492 114.831 59.2727 114.725 59.3094C114.619 59.3461 114.501 59.386 114.372 59.4289C114.25 59.4697 114.144 59.5065 114.053 59.539C114.007 59.5515 113.888 59.5874 113.697 59.6469C113.506 59.7064 113.284 59.7742 113.031 59.8502C112.778 59.9263 112.536 59.9954 112.304 60.0575C112.074 60.1273 111.905 60.1767 111.797 60.2057Z" fill="#F7F3EE"/>
<path d="M112.712 63.2163C112.677 63.2091 112.611 63.1811 112.515 63.1323C112.427 63.0814 112.337 63.0227 112.245 62.9564C112.15 62.8823 112.085 62.8251 112.05 62.785C112.016 62.7526 111.997 62.683 111.994 62.5763C111.998 62.4676 112.015 62.4091 112.046 62.4008C112.073 62.4101 112.097 62.3747 112.117 62.2948C112.137 62.2149 112.156 62.1312 112.174 62.0435C112.19 61.9482 112.196 61.8928 112.192 61.8773C112.191 61.8443 112.204 61.816 112.231 61.7922C112.263 61.7587 112.292 61.7262 112.317 61.6948C112.339 61.6226 112.372 61.5473 112.418 61.4689C112.468 61.3807 112.507 61.3083 112.533 61.2516C112.574 61.1577 112.655 61.0118 112.776 60.8138C112.897 60.6157 113.013 60.4149 113.124 60.2112C113.239 59.99 113.34 59.7971 113.429 59.6326C113.515 59.4604 113.555 59.3462 113.548 59.2901C113.548 59.2901 113.557 59.2754 113.574 59.246C113.596 59.2068 113.624 59.1704 113.656 59.1369C113.689 59.1033 113.728 59.0512 113.776 58.9806C113.831 58.9079 113.875 58.8421 113.909 58.7833C113.908 58.7174 113.924 58.6385 113.958 58.5467C113.997 58.4452 114.045 58.3454 114.101 58.2474C114.138 58.1381 114.169 58.0221 114.194 57.8994C114.217 57.769 114.229 57.6747 114.23 57.6165C114.231 57.5253 114.209 57.4771 114.167 57.472C114.122 57.4592 114.007 57.4485 113.823 57.44C113.621 57.4278 113.444 57.4628 113.292 57.545C113.14 57.6271 112.954 57.801 112.736 58.0666C112.634 58.1188 112.542 58.1766 112.459 58.2401C112.385 58.3015 112.315 58.3366 112.251 58.3455C112.216 58.3383 112.172 58.3128 112.119 58.2691C112.066 58.2254 112.01 58.1865 111.951 58.1526L111.702 57.6852L112.008 57.3919C112.271 57.1061 112.532 56.8747 112.791 56.6976C113.056 56.5107 113.306 56.4231 113.541 56.4346C113.626 56.4119 113.706 56.4028 113.782 56.4073C113.856 56.4041 113.892 56.4025 113.892 56.4025C113.952 56.3782 114.049 56.3853 114.184 56.4238C114.326 56.4602 114.47 56.517 114.615 56.5941C114.767 56.6692 114.881 56.7546 114.957 56.8504C115.13 57.0027 115.236 57.2144 115.276 57.4854C115.315 57.7564 115.277 58.0607 115.16 58.3984C115.134 58.4551 115.075 58.5745 114.983 58.7565C114.891 58.9385 114.785 59.1451 114.664 59.3761C114.55 59.5973 114.442 59.7961 114.34 59.9724C114.246 60.1467 114.184 60.2584 114.156 60.3074C114.108 60.345 114.035 60.4433 113.937 60.6021C113.846 60.7589 113.748 60.9342 113.643 61.1281C113.543 61.3122 113.459 61.4757 113.389 61.6185C113.326 61.7515 113.301 61.816 113.317 61.8118C113.317 61.8448 113.356 61.8344 113.433 61.7808C113.515 61.7173 113.588 61.6646 113.651 61.6228C113.757 61.5531 113.883 61.4821 114.029 61.4098C114.181 61.3277 114.335 61.2533 114.491 61.1866C114.647 61.1199 114.782 61.0672 114.896 61.0284C115.018 60.9876 115.093 60.9756 115.122 60.9926C115.148 61.0271 115.164 61.0395 115.17 61.0297C115.181 61.0101 115.187 61.0003 115.187 61.0003C115.188 60.942 115.28 60.9007 115.464 60.8763C115.656 60.8497 115.831 60.84 115.99 60.847C116.082 60.8474 116.155 60.8607 116.212 60.887C116.277 60.9111 116.313 60.9386 116.321 60.9695C116.321 60.9695 116.334 60.9868 116.36 61.0213C116.391 61.046 116.438 61.0792 116.498 61.1208C116.649 61.1882 116.678 61.2963 116.585 61.4454C116.501 61.5923 116.296 61.6802 115.973 61.7089C115.772 61.7628 115.609 61.8189 115.484 61.8772C115.457 61.901 115.393 61.9263 115.293 61.9532C115.192 61.9801 115.097 62.0099 115.006 62.0425C114.863 62.0643 114.726 62.1093 114.595 62.1775C114.462 62.2379 114.307 62.3249 114.131 62.4385C114.068 62.4803 113.969 62.5441 113.834 62.6298C113.7 62.7155 113.554 62.8043 113.396 62.8962C113.239 62.9881 113.093 63.0643 112.961 63.1248C112.835 63.1832 112.753 63.2137 112.712 63.2163Z" fill="#F7F3EE"/>
<path d="M116.206 34.0713C116.04 34.0081 115.947 33.9417 115.929 33.8722C115.886 33.8341 115.845 33.8202 115.806 33.8306C115.785 33.8445 115.751 33.8121 115.705 33.7333C115.667 33.6525 115.627 33.5639 115.584 33.4676C115.55 33.3692 115.532 33.3035 115.532 33.2705C115.546 33.2004 115.591 33.1385 115.668 33.0848C115.753 33.0291 115.838 32.9937 115.925 32.9786C116.018 32.9538 116.077 32.9712 116.101 33.031C116.133 33.0886 116.204 33.1233 116.315 33.1351C116.434 33.1447 116.577 33.1229 116.745 33.0696C116.959 33.0039 117.147 32.9163 117.308 32.8069C117.477 32.6954 117.619 32.562 117.735 32.4068C117.859 32.2494 117.96 32.0731 118.041 31.8777C118.066 31.755 118.078 31.5986 118.076 31.4084C118.075 31.2183 118.064 31.0516 118.042 30.9083C118.02 30.7651 117.99 30.6987 117.951 30.709C117.951 30.709 117.936 30.684 117.906 30.6341C117.884 30.5821 117.853 30.5283 117.813 30.4726C117.743 30.3671 117.624 30.275 117.453 30.1963C117.281 30.11 117.122 30.0574 116.976 30.0385C116.918 30.0375 116.806 30.0675 116.64 30.1285C116.474 30.1895 116.335 30.2433 116.224 30.2898C116.102 30.3307 116.029 30.3503 116.003 30.3488C115.984 30.3375 115.974 30.3318 115.974 30.3318C115.933 30.3345 115.857 30.3134 115.746 30.2687C115.642 30.222 115.542 30.1703 115.444 30.1137C115.353 30.0551 115.303 30.0064 115.293 29.9678C115.294 29.9096 115.311 29.8055 115.346 29.6555C115.38 29.5055 115.427 29.3397 115.486 29.1583C115.552 28.9747 115.62 28.7951 115.689 28.6192C115.758 28.4434 115.826 28.2967 115.894 28.1792C116.058 27.862 116.285 27.5982 116.577 27.3876C116.866 27.1693 117.171 27.0254 117.492 26.9559C117.718 26.9036 117.893 26.89 118.015 26.9151C118.144 26.9304 118.271 26.9875 118.397 27.0863C118.487 27.1779 118.541 27.2837 118.556 27.4038C118.572 27.5238 118.557 27.623 118.512 27.7014C118.466 27.7798 118.391 27.8082 118.286 27.7867C118.159 27.7462 118.005 27.7585 117.824 27.8236C117.643 27.8888 117.456 27.9802 117.264 28.0979C117.118 28.2032 117.001 28.2925 116.913 28.3658C116.823 28.4313 116.77 28.5118 116.754 28.6071C116.73 28.6386 116.713 28.668 116.703 28.6953C116.702 28.7206 116.685 28.7335 116.652 28.734C116.652 28.734 116.644 28.7526 116.629 28.7897C116.612 28.8191 116.608 28.8493 116.616 28.8802C116.59 28.9369 116.572 28.9789 116.563 29.0062C116.559 29.0238 116.538 29.0212 116.499 28.9986C116.499 28.9986 116.502 29.0102 116.508 29.0334C116.514 29.0565 116.518 29.0846 116.518 29.1176C116.525 29.1738 116.551 29.2083 116.596 29.2211C116.646 29.2241 116.747 29.2137 116.898 29.1898C117.099 29.169 117.251 29.1616 117.352 29.1676C117.458 29.1639 117.624 29.1941 117.848 29.2582C118.098 29.3239 118.306 29.4669 118.472 29.6873C118.645 29.8978 118.778 30.1479 118.872 30.4374C118.972 30.7171 119.038 30.9935 119.069 31.2665C119.092 31.4428 119.104 31.5803 119.106 31.6793C119.107 31.7782 119.076 31.9233 119.011 32.1146C118.899 32.4095 118.731 32.6908 118.504 32.9585C118.276 33.2185 118.021 33.444 117.741 33.635C117.461 33.826 117.184 33.9665 116.91 34.0565C116.642 34.1367 116.407 34.1416 116.206 34.0713Z" fill="#F7F3EE"/>
<path d="M116.065 35.8766C116.019 35.889 115.96 35.9007 115.888 35.9116C115.819 35.9302 115.737 35.9355 115.644 35.9273C115.528 35.9584 115.428 35.9562 115.344 35.9207C115.27 35.8909 115.21 35.8531 115.165 35.8073C115.049 35.7142 115.03 35.6281 115.108 35.5492C115.194 35.4682 115.376 35.3739 115.653 35.2664C115.776 35.2003 115.963 35.1253 116.214 35.0416C116.471 34.948 116.752 34.8559 117.059 34.7654C117.364 34.6671 117.651 34.5779 117.92 34.4977C118.196 34.4154 118.411 34.3536 118.566 34.3121C118.766 34.2583 118.921 34.2334 119.03 34.2374C119.137 34.2336 119.244 34.2629 119.352 34.3251C119.499 34.41 119.559 34.5264 119.532 34.6743C119.503 34.8145 119.396 34.893 119.21 34.9097C119.171 34.92 119.099 34.9435 118.993 34.9803C118.887 35.017 118.769 35.0568 118.64 35.0997C118.518 35.1406 118.412 35.1773 118.322 35.2099C118.275 35.2223 118.156 35.2583 117.965 35.3177C117.774 35.3772 117.552 35.445 117.299 35.5211C117.046 35.5971 116.804 35.6662 116.572 35.7283C116.342 35.7982 116.173 35.8476 116.065 35.8766Z" fill="#F7F3EE"/>
<path d="M116.98 38.8871C116.945 38.88 116.88 38.8519 116.784 38.8031C116.696 38.7522 116.605 38.6936 116.513 38.6272C116.419 38.5531 116.354 38.496 116.318 38.4558C116.284 38.4234 116.266 38.3538 116.262 38.2472C116.266 38.1384 116.283 38.0799 116.314 38.0717C116.342 38.0809 116.365 38.0456 116.385 37.9657C116.405 37.8858 116.424 37.802 116.442 37.7144C116.458 37.619 116.464 37.5636 116.46 37.5482C116.459 37.5152 116.472 37.4868 116.499 37.4631C116.532 37.4296 116.56 37.3971 116.585 37.3656C116.607 37.2934 116.641 37.2181 116.686 37.1398C116.737 37.0516 116.775 36.9791 116.802 36.9224C116.843 36.8286 116.924 36.6826 117.045 36.4846C117.165 36.2866 117.281 36.0857 117.392 35.882C117.507 35.6608 117.609 35.468 117.697 35.3035C117.783 35.1312 117.823 35.0171 117.816 34.9609C117.816 34.9609 117.825 34.9462 117.842 34.9168C117.865 34.8776 117.892 34.8412 117.924 34.8077C117.957 34.7742 117.997 34.7221 118.044 34.6514C118.099 34.5787 118.144 34.5129 118.178 34.4542C118.176 34.3882 118.193 34.3093 118.226 34.2176C118.265 34.116 118.313 34.0162 118.369 33.9182C118.406 33.8089 118.437 33.693 118.463 33.5703C118.486 33.4399 118.498 33.3456 118.499 33.2873C118.499 33.1961 118.478 33.148 118.435 33.1429C118.39 33.13 118.275 33.1193 118.091 33.1108C117.889 33.0987 117.712 33.1337 117.56 33.2158C117.408 33.2979 117.223 33.4718 117.004 33.7375C116.902 33.7896 116.81 33.8474 116.728 33.9109C116.653 33.9723 116.584 34.0075 116.52 34.0163C116.485 34.0091 116.441 33.9837 116.388 33.9399C116.334 33.8962 116.278 33.8574 116.22 33.8234L115.97 33.3561L116.277 33.0627C116.54 32.7769 116.801 32.5455 117.06 32.3684C117.324 32.1816 117.574 32.0939 117.809 32.1055C117.894 32.0827 117.975 32.0736 118.05 32.0781C118.124 32.075 118.161 32.0734 118.161 32.0734C118.221 32.0491 118.318 32.0562 118.452 32.0947C118.595 32.1311 118.738 32.1879 118.883 32.265C119.036 32.34 119.15 32.4254 119.225 32.5212C119.398 32.6735 119.505 32.8852 119.544 33.1562C119.584 33.4272 119.545 33.7316 119.429 34.0693C119.402 34.126 119.343 34.2453 119.251 34.4274C119.159 34.6094 119.053 34.8159 118.933 35.0469C118.818 35.2681 118.71 35.4669 118.608 35.6433C118.514 35.8176 118.453 35.9292 118.424 35.9782C118.377 36.0159 118.304 36.1141 118.205 36.273C118.115 36.4297 118.017 36.6051 117.911 36.7989C117.812 36.983 117.727 37.1465 117.658 37.2893C117.594 37.4224 117.57 37.4868 117.585 37.4827C117.586 37.5156 117.624 37.5053 117.701 37.4516C117.784 37.3881 117.856 37.3355 117.92 37.2936C118.025 37.224 118.151 37.1529 118.297 37.0806C118.449 36.9985 118.603 36.9241 118.759 36.8575C118.916 36.7908 119.05 36.7381 119.164 36.6993C119.286 36.6584 119.361 36.6465 119.391 36.6634C119.417 36.6979 119.432 36.7103 119.438 36.7005C119.449 36.6809 119.455 36.6711 119.455 36.6711C119.456 36.6129 119.548 36.5715 119.732 36.5471C119.924 36.5206 120.099 36.5108 120.259 36.5179C120.35 36.5183 120.424 36.5316 120.481 36.5578C120.545 36.5819 120.581 36.6095 120.59 36.6404C120.59 36.6404 120.603 36.6576 120.628 36.6921C120.66 36.7168 120.706 36.75 120.767 36.7917C120.917 36.859 120.946 36.9672 120.854 37.1162C120.769 37.2632 120.565 37.351 120.241 37.3798C120.04 37.4336 119.877 37.4897 119.752 37.5481C119.725 37.5718 119.662 37.5972 119.561 37.6241C119.461 37.651 119.365 37.6807 119.275 37.7133C119.131 37.7351 118.994 37.7801 118.863 37.8483C118.731 37.9087 118.576 37.9958 118.399 38.1094C118.336 38.1512 118.237 38.2149 118.103 38.3006C117.968 38.3863 117.822 38.4751 117.665 38.5671C117.507 38.659 117.362 38.7352 117.229 38.7956C117.104 38.854 117.021 38.8845 116.98 38.8871Z" fill="#F7F3EE"/>
<path d="M122.416 55.6671C122.385 55.6754 122.293 55.642 122.14 55.567C121.996 55.4898 121.894 55.3431 121.836 55.1267C121.78 54.8851 121.751 54.6236 121.75 54.3422C121.755 54.0511 121.764 53.7919 121.778 53.5646C121.787 53.4131 121.794 53.2868 121.801 53.1858C121.814 53.0827 121.818 53.0196 121.812 52.9964C121.804 52.9985 121.764 53.0176 121.691 53.0537C121.625 53.0878 121.542 53.131 121.44 53.1831C121.082 53.3619 120.802 53.4781 120.601 53.532C120.408 53.5837 120.211 53.5124 120.01 53.3178C119.951 53.2839 119.866 53.2154 119.756 53.1125C119.646 53.0096 119.555 52.8888 119.485 52.7503C119.422 52.6097 119.428 52.4757 119.501 52.3483C119.527 52.1344 119.552 51.9788 119.575 51.8813C119.599 51.7839 119.613 51.7138 119.618 51.671C119.631 51.6262 119.632 51.5844 119.622 51.5458C119.625 51.5283 119.631 51.502 119.638 51.4669C119.645 51.4319 119.656 51.3958 119.671 51.3587C119.71 51.2241 119.766 51.0476 119.84 50.829C119.921 50.6083 120.007 50.3866 120.096 50.1639C120.191 49.9314 120.277 49.7262 120.354 49.5483C120.428 49.3627 120.486 49.2395 120.528 49.1786C120.568 49.143 120.64 49.0865 120.744 49.0091C120.855 48.9296 120.937 48.8826 120.991 48.8681C121.053 48.8515 121.123 48.8785 121.2 48.949C121.282 49.0097 121.354 49.0774 121.415 49.152C121.477 49.2267 121.512 49.2795 121.52 49.3104C121.52 49.3104 121.518 49.3191 121.515 49.3367C121.511 49.3542 121.503 49.3854 121.49 49.4302C121.471 49.4849 121.442 49.5591 121.401 49.6529C121.367 49.7447 121.313 49.8669 121.238 50.0195C121.174 50.1526 121.101 50.342 121.017 50.5879C120.932 50.8261 120.851 51.0798 120.774 51.3489C120.703 51.6082 120.645 51.8391 120.6 52.0417C120.554 52.2442 120.54 52.3764 120.557 52.4383C120.567 52.4769 120.587 52.5047 120.616 52.5217C120.651 52.5288 120.708 52.5221 120.785 52.5014C120.881 52.459 120.966 52.4197 121.039 52.3836C121.12 52.3453 121.193 52.3092 121.258 52.2751C121.339 52.2369 121.409 52.2017 121.466 52.1697C121.522 52.13 121.575 52.0951 121.625 52.0652C121.68 52.0254 121.729 51.9916 121.771 51.9637C121.819 51.9261 121.858 51.8866 121.889 51.8453C121.961 51.7432 122.002 51.6203 122.013 51.4765C122.025 51.3327 122.05 51.1353 122.091 50.8843C122.111 50.7131 122.136 50.5575 122.164 50.4173C122.199 50.2673 122.228 50.1309 122.254 50.0083C122.352 49.601 122.444 49.2987 122.532 49.1012C122.618 48.896 122.669 48.7913 122.684 48.7872C122.707 48.781 122.77 48.7974 122.871 48.8365C122.973 48.8755 123.072 48.9194 123.168 48.9683C123.244 49.0058 123.308 49.0426 123.359 49.0786C123.408 49.1069 123.434 49.1287 123.438 49.1442C123.463 49.2369 123.466 49.3397 123.446 49.4526C123.433 49.5557 123.404 49.6794 123.36 49.8237C123.315 49.9681 123.269 50.1503 123.22 50.3704C123.164 50.6256 123.116 50.8787 123.076 51.1297C123.033 51.373 122.995 51.6152 122.96 51.8564C122.923 52.0899 122.893 52.3175 122.87 52.5391C122.846 52.7607 122.823 52.9697 122.802 53.166C122.754 53.6675 122.728 54.0347 122.724 54.2676C122.72 54.5006 122.73 54.6595 122.752 54.7445C122.781 54.8198 122.814 54.8813 122.852 54.9292C122.879 55.0296 122.873 55.1345 122.837 55.2438C122.797 55.3454 122.739 55.4356 122.661 55.5146C122.582 55.5935 122.501 55.6443 122.416 55.6671Z" fill="#F7F3EE"/>
<path d="M120.333 57.6448C120.287 57.6572 120.228 57.6688 120.156 57.6798C120.087 57.6984 120.005 57.7036 119.912 57.6955C119.796 57.7266 119.696 57.7244 119.612 57.6889C119.538 57.6591 119.478 57.6213 119.433 57.5755C119.317 57.4824 119.298 57.3963 119.376 57.3174C119.462 57.2364 119.644 57.1421 119.921 57.0346C120.044 56.9685 120.231 56.8935 120.482 56.8098C120.739 56.7162 121.021 56.6241 121.328 56.5336C121.633 56.4353 121.919 56.346 122.188 56.2658C122.464 56.1836 122.679 56.1217 122.834 56.0803C123.035 56.0265 123.189 56.0016 123.298 56.0056C123.405 56.0018 123.512 56.0311 123.62 56.0933C123.767 56.1782 123.827 56.2945 123.8 56.4425C123.772 56.5827 123.664 56.6611 123.478 56.6779C123.44 56.6882 123.367 56.7117 123.261 56.7485C123.155 56.7852 123.037 56.825 122.908 56.8679C122.786 56.9088 122.68 56.9455 122.59 56.9781C122.543 56.9905 122.425 57.0264 122.233 57.0859C122.042 57.1454 121.82 57.2132 121.567 57.2893C121.314 57.3653 121.072 57.4344 120.84 57.4965C120.611 57.5664 120.442 57.6158 120.333 57.6448Z" fill="#F7F3EE"/>
<path d="M122.221 60.4818C122.027 60.5335 121.829 60.5495 121.625 60.5296C121.426 60.5 121.259 60.4494 121.124 60.378C120.989 60.3065 120.913 60.2234 120.896 60.1286C120.871 60.0029 120.887 59.8949 120.946 59.8046C121.004 59.7144 121.122 59.6581 121.298 59.6357C121.575 59.6194 121.847 59.5673 122.113 59.4793C122.378 59.3837 122.614 59.2623 122.823 59.1152C123.04 58.966 123.202 58.7983 123.31 58.6122C123.465 58.3553 123.527 58.1564 123.498 58.0152C123.466 57.8663 123.318 57.7485 123.055 57.6617C122.936 57.6191 122.795 57.5865 122.631 57.564C122.468 57.5415 122.309 57.5345 122.154 57.543C122.004 57.5416 121.876 57.5593 121.77 57.596C121.703 57.6223 121.615 57.6335 121.506 57.6295C121.395 57.6178 121.282 57.5984 121.167 57.5712C121.106 57.5295 121.04 57.452 120.968 57.3388C120.897 57.2255 120.849 57.1554 120.825 57.1287C120.807 57.0921 120.822 57.0385 120.869 56.9678C120.916 56.8972 121.018 56.7829 121.175 56.625C121.329 56.4594 121.558 56.2324 121.862 55.944C122.139 55.6793 122.35 55.4778 122.495 55.3395C122.646 55.1915 122.76 55.0779 122.839 54.999C122.922 54.9103 122.991 54.8257 123.044 54.7452C123.108 54.6122 123.128 54.5197 123.106 54.4676C123.084 54.4156 122.967 54.3972 122.756 54.4124C122.559 54.4487 122.404 54.4901 122.292 54.5366C122.178 54.5754 122.126 54.6103 122.134 54.6412C122.134 54.6412 122.13 54.6422 122.122 54.6443C122.122 54.6443 122.111 54.6474 122.088 54.6536C122.045 54.6485 121.961 54.6751 121.836 54.7335C121.71 54.7919 121.59 54.8531 121.475 54.9172C121.367 54.9791 121.313 55.0227 121.311 55.048C121.308 55.0655 121.261 55.107 121.171 55.1726C121.086 55.2284 120.997 55.2813 120.903 55.3314C120.816 55.3794 120.761 55.4065 120.738 55.4127C120.695 55.4076 120.634 55.366 120.555 55.2877C120.484 55.2074 120.42 55.1212 120.362 55.029C120.302 54.9291 120.275 54.8578 120.28 54.815C120.287 54.78 120.329 54.7191 120.405 54.6324C120.487 54.536 120.58 54.4364 120.685 54.3337C120.788 54.2233 120.877 54.1374 120.951 54.076C121.051 54.0161 121.202 53.9466 121.405 53.8675C121.613 53.7786 121.819 53.6985 122.024 53.6272C122.234 53.546 122.386 53.4969 122.481 53.4797C122.847 53.4231 123.158 53.4392 123.413 53.5281C123.667 53.6092 123.866 53.796 124.011 54.0886C124.063 54.1905 124.093 54.3026 124.101 54.4247C124.109 54.5468 124.09 54.6762 124.043 54.8128C123.997 54.9494 123.915 55.108 123.798 55.2885C123.638 55.4639 123.515 55.6086 123.43 55.7226C123.35 55.8268 123.233 55.9452 123.078 56.0778C123.034 56.1309 122.961 56.1962 122.857 56.2736C122.754 56.3511 122.657 56.4226 122.567 56.4881C122.477 56.5537 122.434 56.5942 122.438 56.6096C122.438 56.6096 122.475 56.608 122.548 56.6048C122.628 56.5919 122.713 56.5856 122.804 56.586C122.901 56.5766 122.974 56.586 123.023 56.6143C123.268 56.6316 123.509 56.7119 123.746 56.8554C123.989 56.9891 124.163 57.0997 124.27 57.1872C124.442 57.3977 124.524 57.6574 124.516 57.966C124.513 58.2649 124.441 58.5698 124.301 58.8807C124.166 59.1819 123.986 59.4498 123.759 59.6845C123.575 59.8661 123.333 60.0264 123.03 60.1654C122.734 60.2946 122.464 60.4001 122.221 60.4818Z" fill="#F7F3EE"/>
<path d="M89.5 38C111.5 32 106 45 114.5 42.5C123 40 125.5 43 126.5 46C127.3 48.4 130.833 48.3333 132.5 48" stroke="black"/>
<path d="M90 48.599C112 42.599 106.5 55.599 115 53.099C123.5 50.599 126 53.599 127 56.599C127.8 58.999 131.333 58.9323 133 58.599" stroke="black"/>
<path d="M111.553 34.9642C111.506 34.9743 111.447 34.9869 111.377 35.002C111.304 35.0094 111.222 35.0066 111.129 34.9939C111.012 35.0191 110.913 35.0159 110.833 34.9841C110.758 34.9428 110.7 34.8981 110.656 34.8501C110.545 34.7513 110.53 34.6606 110.61 34.5778C110.697 34.4855 110.881 34.3926 111.164 34.299C111.29 34.2392 111.481 34.1736 111.735 34.1024C111.996 34.0217 112.278 33.9447 112.582 33.8712C112.883 33.7899 113.17 33.7159 113.442 33.6492C113.714 33.5825 113.928 33.5323 114.085 33.4986C114.288 33.4549 114.472 33.4357 114.637 33.4411C114.81 33.4449 114.948 33.4805 115.053 33.5481C115.196 33.6401 115.25 33.7594 115.216 33.9058C115.18 34.0444 115.069 34.1174 114.882 34.1248C114.843 34.1332 114.77 34.1531 114.662 34.1845C114.554 34.2159 114.435 34.2498 114.303 34.2863C114.18 34.321 114.072 34.3524 113.98 34.3804C113.933 34.3905 113.805 34.4222 113.595 34.4754C113.386 34.5287 113.141 34.5895 112.861 34.658C112.589 34.7247 112.329 34.7889 112.08 34.8506C111.838 34.9027 111.662 34.9406 111.553 34.9642ZM113.518 36.456C113.42 36.5673 113.325 36.5835 113.234 36.5048C113.15 36.4166 113.061 36.2312 112.967 35.9486C112.907 35.8223 112.838 35.6327 112.759 35.3797C112.686 35.1171 112.609 34.835 112.528 34.5334C112.454 34.23 112.384 33.9423 112.317 33.6703C112.251 33.3982 112.201 33.184 112.167 33.0276C112.123 32.8242 112.104 32.6402 112.109 32.4753C112.113 32.3027 112.145 32.1649 112.205 32.062C112.297 31.9195 112.416 31.8652 112.562 31.8991C112.709 31.9331 112.786 32.0434 112.793 32.23C112.809 32.2674 112.829 32.3409 112.853 32.4504C112.884 32.5582 112.918 32.6777 112.955 32.809C112.989 32.9324 113.021 33.0403 113.049 33.1324C113.059 33.1793 113.09 33.3076 113.144 33.517C113.197 33.7265 113.258 33.9712 113.326 34.2511C113.393 34.5231 113.453 34.7843 113.507 35.0345C113.567 35.2753 113.609 35.4504 113.632 35.5599C113.643 35.6069 113.651 35.6664 113.659 35.7384C113.674 35.8088 113.675 35.8904 113.662 35.9832C113.687 36.1005 113.68 36.2002 113.641 36.2824C113.607 36.3551 113.566 36.4129 113.518 36.456Z" fill="#F7F3EE"/>
<path d="M118.878 58.333C118.847 58.3397 118.803 58.3451 118.747 58.3491C118.698 58.3513 118.655 58.3402 118.617 58.3156C118.585 58.3224 118.528 58.3224 118.445 58.3158C118.362 58.3092 118.285 58.2969 118.216 58.2791C118.131 58.2647 118.012 58.2248 117.859 58.1596C117.704 58.0865 117.548 58.0056 117.389 57.9169C117.231 57.8282 117.094 57.7431 116.979 57.6617C116.871 57.5785 116.812 57.5135 116.801 57.4665C116.793 57.4274 116.769 57.4121 116.73 57.4205C116.73 57.4205 116.716 57.4113 116.687 57.3929C116.657 57.3666 116.639 57.3379 116.632 57.3066C116.615 57.2284 116.568 57.1977 116.489 57.2145C116.489 57.2145 116.447 57.2811 116.361 57.4141C116.282 57.5455 116.182 57.7062 116.059 57.8963C115.887 58.1624 115.758 58.3581 115.67 58.4833C115.589 58.5991 115.517 58.6636 115.454 58.6771C115.391 58.6906 115.303 58.6809 115.19 58.648C115.083 58.6056 114.979 58.542 114.879 58.4572C114.787 58.3707 114.725 58.257 114.695 58.1162C114.695 58.1162 114.754 58.0095 114.872 57.7959C114.997 57.5807 115.149 57.3557 115.328 57.1208L115.795 56.3821L115.57 55.964C115.488 55.8507 115.402 55.7343 115.311 55.6148C115.226 55.4858 115.157 55.3777 115.106 55.2906C114.983 55.1778 114.915 55.1066 114.9 55.077C114.892 55.0379 114.909 54.9647 114.951 54.8574C115 54.7814 115.088 54.6969 115.216 54.6041C115.349 54.5017 115.47 54.4717 115.577 54.5141C115.624 54.504 115.701 54.557 115.808 54.6731C115.913 54.7814 116.013 54.9071 116.11 55.05C116.212 55.1835 116.27 55.2815 116.283 55.344C116.31 55.4692 116.348 55.5306 116.397 55.5283C116.453 55.5244 116.562 55.4396 116.722 55.2741C116.798 55.1679 116.857 55.0815 116.9 55.015C116.941 54.9406 116.962 54.9034 116.962 54.9034C116.98 54.8749 117.038 54.8011 117.135 54.682C117.232 54.5629 117.332 54.4391 117.436 54.3105C117.539 54.1819 117.608 54.1055 117.644 54.0815C117.697 54.0211 117.775 54.0043 117.879 54.031C117.981 54.0499 118.077 54.0948 118.166 54.1657C118.261 54.2271 118.317 54.3008 118.336 54.3868C118.356 54.4806 118.351 54.5921 118.322 54.7212C118.291 54.8425 118.206 54.963 118.068 55.0827C117.949 55.2146 117.858 55.3203 117.793 55.3997C117.736 55.4774 117.677 55.5638 117.615 55.6588C117.552 55.7461 117.451 55.8825 117.311 56.0681L117.059 56.3801L117.315 56.6565C117.358 56.7045 117.414 56.7578 117.484 56.8164C117.562 56.8733 117.631 56.9115 117.693 56.931C117.753 56.9835 117.853 57.048 117.992 57.1244C118.13 57.193 118.262 57.2546 118.388 57.3093C118.514 57.3639 118.585 57.3895 118.601 57.3862C118.632 57.3795 118.67 57.3836 118.714 57.3987C118.758 57.4137 118.811 57.431 118.872 57.4505C118.948 57.4996 118.998 57.5954 119.02 57.7378C119.041 57.8725 119.037 58.0043 119.007 58.1334C118.984 58.253 118.941 58.3195 118.878 58.333Z" fill="#F7F3EE"/>
<path d="M73 62L78 81.5M78 65.5L71 68.5" stroke="black"/>
</svg>
