<svg width="204" height="160" viewBox="0 0 204 160" fill="none" xmlns="http://www.w3.org/2000/svg">
<path d="M38.5455 34.6265C38.9176 34.7578 39.3116 34.7359 39.8151 34.6046C40.3185 34.4733 40.9314 34.2544 41.6318 34.0136C40.997 33.948 40.406 33.948 39.8807 34.0574C39.3554 34.1669 38.8739 34.3638 38.5455 34.6265Z" fill="#0055F9"/>
<path d="M154.073 116.793C154.029 116.881 153.963 116.969 153.897 117.078C153.963 116.99 154.073 116.925 154.073 116.793Z" fill="#0055F9"/>
<path d="M117.234 50.6703C117.234 50.6703 117.475 50.5609 117.716 50.4733C117.957 50.3639 118.219 50.2763 118.219 50.2763C118.416 50.5827 118.526 50.8235 118.613 51.0205C118.679 51.2175 118.723 51.3707 118.723 51.502C118.745 51.7647 118.635 51.896 118.548 52.0273C118.46 52.1587 118.373 52.2681 118.394 52.487C118.394 52.684 118.504 52.9685 118.745 53.4282C118.964 53.4501 119.117 53.5376 119.27 53.647C119.336 53.7127 119.401 53.7784 119.467 53.844C119.511 53.9097 119.555 53.9972 119.598 54.0848C119.642 54.1723 119.686 54.2599 119.708 54.3474C119.73 54.435 119.752 54.5444 119.773 54.632C119.817 54.829 119.817 55.026 119.839 55.2448V55.5513C119.839 55.6607 119.839 55.7483 119.839 55.8358C119.839 56.0328 119.817 56.2079 119.817 56.3611C119.817 56.5143 119.817 56.6676 119.861 56.7989C119.905 56.9302 119.97 57.0178 120.058 57.1053C119.992 57.1053 119.949 57.3242 119.861 57.5431C119.839 57.6087 119.817 57.6525 119.795 57.6963C119.773 57.7401 119.73 57.7838 119.686 57.8276C119.598 57.8933 119.511 57.9371 119.401 57.9152C119.598 58.0027 119.686 58.1122 119.752 58.2435C119.773 58.3091 119.795 58.3748 119.795 58.4405C119.795 58.5061 119.773 58.5718 119.752 58.6593C119.708 58.8126 119.664 58.9658 119.62 59.119C119.555 59.2722 119.511 59.4473 119.533 59.6224C119.708 59.907 119.795 59.513 120.08 59.3816C120.08 59.3816 120.08 59.4911 120.058 59.6224C120.058 59.6881 120.058 59.7975 120.058 59.8851C120.058 59.9288 120.058 59.9726 120.058 60.0383C120.058 60.0821 120.036 60.1477 120.036 60.1915C120.014 60.4104 119.992 60.6074 119.97 60.7825C119.97 60.87 119.949 60.9357 119.949 60.9795C119.949 61.0232 119.927 61.0451 119.927 61.0451C119.445 61.6142 118.964 61.5704 119.117 60.8919C119.073 61.0232 119.007 61.1546 118.942 61.3078C118.876 61.461 118.788 61.6361 118.701 61.8112C118.548 62.1833 118.307 62.5992 118.044 63.0807C117.519 64.0219 116.753 65.16 115.768 66.342C115.637 66.4952 115.505 66.6484 115.396 66.7797C115.264 66.9329 115.111 67.0643 114.98 67.2175C114.827 67.3707 114.717 67.5239 114.564 67.6771C114.411 67.8303 114.258 67.9617 114.104 68.1149C113.973 68.2681 113.776 68.4213 113.623 68.5745C113.448 68.7277 113.294 68.881 113.097 69.0561C112.725 69.3625 112.375 69.6908 111.959 69.9972C110.383 71.2667 108.501 72.4925 106.422 73.6744C105.371 74.2654 104.276 74.8344 103.138 75.3816C102 75.9288 100.84 76.4542 99.658 76.9576C99.067 77.2202 98.476 77.461 97.885 77.7018C97.2721 77.9425 96.703 78.1833 96.0902 78.4022C94.9082 78.8618 93.7481 79.3215 92.6318 79.6936C88.2103 81.3132 84.5331 82.4076 82.5631 83.0643C83.1541 83.2175 84.0297 82.9986 84.9271 82.8454C85.8026 82.6922 86.6781 82.539 87.291 82.8454C85.3648 84.0273 84.1391 83.5896 83.373 84.4213C83.0666 84.1368 82.6288 84.0711 82.1035 84.0711C81.5782 84.093 80.9434 84.2024 80.3086 84.3338C79.9803 84.3994 79.652 84.4651 79.3455 84.5089C79.0172 84.5527 78.6889 84.5964 78.3824 84.5964C77.7477 84.6183 77.1567 84.5527 76.6751 84.29L76.2374 85.2093L75.0773 84.9466C74.5082 85.1217 73.9829 85.2749 73.5451 85.4282C73.0854 85.5595 72.6915 85.6689 72.3412 85.7784C71.6408 85.9754 71.1155 86.1286 70.7434 86.238C69.9773 86.4569 69.7365 86.5007 69.5395 86.5225C69.3425 86.5444 69.1455 86.5226 68.5108 86.5882C68.1824 86.6101 67.7447 86.6758 67.1099 86.7195C66.4751 86.7852 65.6653 86.8728 64.6146 87.0041C63.3889 87.2011 62.3382 87.3981 61.397 87.6388C60.4558 87.8577 59.6241 88.0547 58.8799 88.2517C58.5078 88.3611 58.1357 88.4487 57.7854 88.5143C57.4352 88.58 57.085 88.6457 56.7348 88.6894C56.0563 88.777 55.3996 88.8427 54.6992 88.7551C55.1151 88.7551 56.2314 89.171 54.9618 89.4555C54.8305 89.1053 53.9769 89.2804 53.0794 89.4336C52.182 89.6087 51.2189 89.7401 50.8906 89.3899C50.5842 89.4117 50.0807 89.4336 49.5554 89.4774C49.4241 89.4774 49.2927 89.4993 49.1395 89.4993L48.8331 89.5212C48.6361 89.5431 48.4391 89.565 48.264 89.5868C47.9138 89.6306 47.6292 89.6963 47.4979 89.8276C47.3447 89.9589 47.3447 90.134 47.5636 90.3748C47.3228 90.134 46.6661 89.8933 46.294 89.6744C45.9438 89.4555 45.7906 89.2804 46.3597 89.1491C46.0533 89.0834 45.7906 88.9959 45.5936 88.9521C45.3966 88.8864 45.2872 88.8864 45.1777 88.9521C45.1777 88.9521 45.1777 88.974 45.2215 88.9959C45.2434 89.0178 45.2653 89.0834 45.3309 89.1272C45.3528 89.1491 45.3747 89.171 45.3966 89.1929C45.4185 89.2148 45.4404 89.2366 45.4842 89.2585C45.5279 89.3023 45.5498 89.3242 45.5498 89.3242C45.3528 89.3023 45.2215 89.2585 45.1121 89.2366C45.0902 89.2366 45.0683 89.2148 45.0683 89.2148C45.0464 89.2148 45.0245 89.1929 45.0245 89.1929L45.0026 89.171V89.1929L44.9807 89.2366C44.2365 90.9439 43.5799 92.0821 43.0327 92.8481C42.4854 93.6142 42.0258 94.0301 41.8069 94.2271C41.588 94.4022 41.5661 94.3584 41.8726 94.249C41.8507 94.249 41.6975 94.3146 41.6537 94.3365L41.6318 94.3584C41.6318 94.3584 41.6537 94.3584 41.6537 94.3365C41.6756 94.3365 41.6756 94.3146 41.6756 94.3146C41.6756 94.3146 41.6537 94.3365 41.6318 94.3584C41.6537 94.3584 41.6537 94.3365 41.6537 94.3365C41.6975 94.3146 41.7412 94.2927 41.7631 94.2708C41.8288 94.249 41.8945 94.2052 41.9601 94.1833H42.0039C42.2666 93.7018 41.6537 94.8399 41.7194 94.7086V94.6867L41.6756 94.5773C41.6537 94.5116 41.6318 94.4241 41.6099 94.3584C41.5661 94.2271 41.5224 94.0739 41.4567 93.9425V93.9206H41.4786L41.5442 93.9863C41.5661 94.0082 41.6099 94.052 41.6318 94.0738C41.6756 94.1395 41.7194 94.2052 41.7631 94.249C41.9163 94.2271 42.0258 94.2271 42.1352 94.2271C42.3103 94.2271 42.4854 94.2271 42.6387 94.2271C42.6824 94.2271 42.7043 94.2271 42.7481 94.2271C42.7919 94.2271 42.8575 94.2271 42.9013 94.2271C42.9889 94.2271 43.0764 94.249 43.164 94.249C43.2515 94.249 43.3172 94.2708 43.4048 94.2927C43.4485 94.2927 43.4704 94.3146 43.5142 94.3146C43.5361 94.3146 43.6018 94.3146 43.6455 94.3365C43.6455 94.3365 43.5799 94.3365 43.5142 94.3146C43.4485 94.2927 43.3391 94.2927 43.2078 94.2708C43.0764 94.249 42.9232 94.249 42.77 94.2271C42.6606 94.2052 42.5292 94.2052 42.3979 94.2052C42.3322 94.2052 42.2666 94.2052 42.2009 94.2052C42.1571 94.2052 42.1133 94.2052 42.0915 94.2052C42.0039 94.2052 41.9382 94.2271 41.8507 94.2271H41.8288H41.8069C41.8069 94.2052 41.785 94.2052 41.785 94.1833C41.7631 94.1614 41.7631 94.1395 41.7412 94.1176C41.7193 94.0738 41.6975 94.052 41.6975 94.052C41.7194 94.0957 41.7412 94.1176 41.7631 94.1614L41.785 94.2052C41.785 94.2052 41.785 94.2271 41.8069 94.2271H41.8288C41.8945 94.2052 41.982 94.2052 42.0477 94.2052H42.179C42.2009 94.2052 42.2228 94.2052 42.2447 94.2052C42.3541 94.2052 42.4417 94.2052 42.5511 94.2052H42.6824C42.7262 94.2052 42.77 94.2052 42.8357 94.2271C42.967 94.2271 43.0983 94.249 43.2078 94.249C43.3391 94.2708 43.4266 94.2927 43.558 94.3146C43.7112 94.3365 43.8425 94.3584 43.9957 94.3803C44.1271 94.4022 44.2584 94.4459 44.3897 94.4678C44.4554 94.4897 44.543 94.5116 44.6086 94.5116L44.8494 94.5773C45.0026 94.621 45.1558 94.6648 45.2872 94.7086L45.506 94.7743L45.7468 94.8399C46.0751 94.9494 46.3816 95.0588 46.688 95.1901C47.0163 95.3214 47.3447 95.4528 47.6511 95.606L47.87 95.7154L47.9357 95.7373V95.7154L47.9138 95.6936V95.6498C47.9138 95.6279 47.9138 95.5841 47.9138 95.5403C47.9138 95.4966 47.9357 95.4528 47.9357 95.409C47.9794 95.212 48.067 94.9275 48.1764 94.5992C48.1764 94.5992 48.0889 94.6867 48.0232 94.7743C47.9357 94.8618 47.8919 94.9275 47.87 94.9275C47.87 94.8618 47.87 94.818 47.8919 94.7524C47.9138 94.6867 47.9357 94.621 47.9576 94.5335C47.9794 94.4459 48.0232 94.3803 48.067 94.2708L48.0889 94.2052C48.1108 94.1833 48.1327 94.1395 48.1545 94.1176C48.1983 94.052 48.2421 93.9863 48.2859 93.9206C48.3734 93.7893 48.4829 93.6361 48.5923 93.5048C48.7018 93.3516 48.8331 93.2202 48.9644 93.067C49.0957 92.9138 49.2271 92.7387 49.3803 92.5855C49.5335 92.4323 49.6867 92.279 49.8618 92.1039C50.5404 91.4692 51.3284 90.7688 52.2915 90.1559C53.2327 89.5212 54.2833 88.9302 55.3996 88.4049C56.5159 87.9015 57.6979 87.4856 58.858 87.1354C59.1425 87.0479 59.4271 86.9822 59.7116 86.8946C59.9962 86.829 60.2807 86.7633 60.5653 86.6977C60.8498 86.632 61.1125 86.5882 61.397 86.5225C61.6597 86.4788 61.9442 86.4131 62.185 86.3693C62.7103 86.3037 63.1919 86.1942 63.6734 86.1723C63.9142 86.1505 64.1331 86.1067 64.352 86.0848C64.5709 86.0629 64.7897 86.041 64.9867 86.0191C65.1837 85.9972 65.3807 85.9754 65.5558 85.9535C65.7309 85.9316 65.906 85.9316 66.0593 85.9097C66.3657 85.8659 66.6502 85.8221 66.8472 85.7784C66.8472 85.7784 66.497 85.5595 66.1468 85.3187C65.9717 85.2093 65.7966 85.0998 65.6653 85.0123C65.5339 84.9247 65.4464 84.881 65.4464 84.881C65.4464 84.881 65.4902 84.881 65.5777 84.8591C65.6653 84.8372 65.7747 84.8372 65.906 84.8153C66.1906 84.7934 66.5408 84.7496 66.9129 84.7059C67.285 84.684 67.6571 84.6621 67.9417 84.6402C68.073 84.6402 68.2043 84.6183 68.2919 84.6183C68.3794 84.6183 68.4232 84.6183 68.4232 84.6183C68.2481 84.5745 67.7884 85.1217 67.3726 85.647C67.1537 85.9097 66.9567 86.1505 66.8035 86.3256C66.6503 86.5007 66.5189 86.5882 66.4533 86.5225C66.5408 86.5225 66.6502 86.5444 66.7378 86.5444C66.8472 86.5663 66.9567 86.5663 67.0661 86.5882C67.285 86.6101 67.5477 86.6539 67.8103 86.6977C68.073 86.7414 68.3794 86.8071 68.6859 86.8509C68.8391 86.8728 68.9923 86.9165 69.1674 86.9384C69.3425 86.9822 69.4957 87.026 69.6708 87.0479C71.0498 87.3543 72.7352 87.8577 74.552 88.6019C75.4713 88.9521 76.4125 89.4118 77.3756 89.8933C78.3387 90.3967 79.3237 90.9439 80.2649 91.6005C82.1691 92.8262 84.1391 94.4022 86.0215 96.197C89.8082 99.7866 93.3541 104.339 96.3309 108.41C97.8194 110.446 99.1545 112.328 100.293 113.926C100.862 114.736 101.365 115.436 101.803 116.071C102.241 116.706 102.613 117.231 102.897 117.647C103.707 119.07 103.598 119.376 103.226 119.311C102.854 119.267 102.263 118.851 102.197 118.873C103.532 120.383 103.948 120.602 104.32 120.799C104.67 120.996 104.933 121.149 106.006 122.506C106.509 123.338 105.415 122.725 104.999 122.375C106.049 123.513 106.772 124.782 107.122 124.651C106.071 122.988 107.319 123.031 107.253 122.025C107.253 122.025 107.428 122.243 107.691 122.572C107.954 122.9 108.304 123.338 108.676 123.776C109.048 124.213 109.398 124.651 109.683 124.979C109.967 125.308 110.143 125.527 110.143 125.527L109.573 125.767C109.924 126.161 110.646 126.38 111.653 126.927C112.156 127.19 112.747 127.562 113.382 128.066C113.688 128.328 114.061 128.591 114.411 128.919C114.761 129.248 115.133 129.62 115.527 130.057C118.285 132.815 121.612 135.508 125.333 137.784C127.237 138.9 129.185 139.951 131.243 140.826L132.009 141.155L132.797 141.505C133.344 141.724 133.913 141.943 134.461 142.118C134.745 142.205 135.008 142.315 135.292 142.402C135.577 142.49 135.84 142.577 136.124 142.665C136.671 142.84 137.24 142.971 137.788 143.124C137.569 143.431 135.643 143.19 133.694 142.709C134.285 142.906 135.052 143.168 135.796 143.387C136.54 143.628 137.262 143.825 137.809 144.088C137.306 143.803 137.284 143.694 137.525 143.672C137.656 143.672 137.831 143.672 138.05 143.715C138.269 143.737 138.51 143.781 138.773 143.803C139.035 143.847 139.276 143.891 139.517 143.912C139.758 143.934 139.955 143.956 140.086 143.978C140.37 144 140.436 143.978 140.02 143.847C141.728 143.781 143.5 143.825 145.317 143.803C147.134 143.781 148.994 143.737 150.855 143.584C152.694 143.431 154.532 143.124 156.261 142.665C157.969 142.205 159.567 141.57 160.902 140.782C160.902 140.607 160.967 140.082 161.033 139.294C161.077 138.9 161.099 138.44 161.143 137.937C161.164 137.434 161.208 136.865 161.208 136.252C161.23 135.048 161.186 133.669 161.055 132.246C160.989 131.524 160.88 130.802 160.749 130.079C160.617 129.357 160.464 128.613 160.267 127.912C160.092 127.212 159.873 126.512 159.632 125.833C159.391 125.155 159.129 124.52 158.844 123.885C158.56 123.272 158.275 122.681 157.969 122.134C157.662 121.587 157.356 121.083 157.049 120.624C156.458 119.704 155.846 118.96 155.364 118.413C154.904 117.866 154.554 117.538 154.401 117.406C154.642 117.187 154.795 116.947 154.97 116.947C154.882 116.925 154.773 116.925 154.685 116.947C154.598 116.969 154.51 117.012 154.423 117.078C154.379 117.1 154.335 117.144 154.313 117.166C154.27 117.209 154.248 117.231 154.226 117.275C154.182 117.319 154.16 117.363 154.138 117.406C154.116 117.45 154.094 117.494 154.094 117.538C154.094 117.538 154.226 117.691 154.357 117.844C154.488 117.997 154.62 118.172 154.62 118.172C154.598 118.216 154.554 118.282 154.532 118.326C154.488 118.369 154.467 118.391 154.445 118.413C154.379 118.457 154.335 118.501 154.313 118.523C154.226 118.544 154.16 118.523 154.094 118.479C153.941 118.391 153.832 118.282 153.416 118.588C153.306 118.457 153.285 118.326 153.306 118.172C153.306 118.107 153.328 118.019 153.35 117.953C153.372 117.888 153.416 117.822 153.438 117.756C153.591 117.494 153.788 117.231 153.941 117.034C153.766 117.187 153.46 117.253 153.263 117.363C153.197 117.384 153.153 117.428 153.131 117.472C153.088 117.516 153.044 117.559 153.022 117.603C152.978 117.713 152.934 117.844 152.978 118.041C152.803 118.085 152.672 118.041 152.606 117.975C152.518 117.91 152.475 117.822 152.431 117.735C152.387 117.647 152.322 117.559 152.234 117.494C152.19 117.472 152.146 117.45 152.059 117.428C151.993 117.406 151.906 117.406 151.796 117.428C151.577 117.625 151.315 117.997 150.921 118.238C150.549 118.501 150.067 118.698 149.564 118.588V118.479C148.973 118.413 148.447 118.435 147.944 118.523C147.44 118.61 146.959 118.72 146.477 118.829C145.996 118.917 145.492 119.026 144.989 118.982C144.485 118.96 143.938 118.851 143.413 118.523L143.697 118.369C143.347 118.085 142.778 117.953 142.187 117.778C142.1 117.756 142.034 117.735 141.946 117.691C141.859 117.647 141.749 117.603 141.662 117.559C141.465 117.472 141.268 117.384 141.071 117.297C140.874 117.209 140.677 117.078 140.48 116.947C140.283 116.815 140.108 116.684 139.911 116.553C140.305 116.903 140.502 117.538 139.473 117.122C139.254 116.925 139.057 116.772 138.838 116.618C138.641 116.465 138.422 116.334 138.225 116.181C138.028 116.027 137.831 115.896 137.634 115.765C137.437 115.633 137.262 115.524 137.065 115.371C136.693 115.086 136.343 114.845 136.015 114.539C135.686 114.233 135.38 113.904 135.117 113.532C135.117 113.532 134.679 113.379 134.22 113.204C134.001 113.116 133.76 113.029 133.607 112.985C133.432 112.919 133.322 112.854 133.322 112.854C132.491 112.088 131.309 110.971 129.908 109.483C128.507 107.995 126.843 106.112 125.049 103.858C124.129 102.72 123.21 101.538 122.203 100.202C121.7 99.5239 121.174 98.8454 120.649 98.1669C120.124 97.4665 119.576 96.7442 119.029 96.0219C116.775 93.1764 114.345 89.9589 111.631 86.6758C108.895 83.4145 105.896 80.0875 102.525 77.067C102.109 76.6949 101.672 76.3228 101.256 75.9507C100.818 75.5786 100.38 75.2284 99.9425 74.8563C99.7236 74.6812 99.5048 74.5061 99.2859 74.3091C99.067 74.134 98.8481 73.9589 98.6073 73.7838C98.1696 73.4336 97.7099 73.1053 97.2721 72.7551C96.8344 72.4268 96.3528 72.0985 95.9151 71.7702C95.6962 71.6169 95.4554 71.4418 95.2365 71.2886C94.9958 71.1354 94.7769 70.9822 94.5361 70.829C94.0764 70.5226 93.6168 70.238 93.1571 69.9535C92.6975 69.6689 92.2378 69.4063 91.7782 69.1217C88.1447 66.9986 84.5769 65.4446 81.4249 64.3283C78.273 63.212 75.5369 62.5773 73.5013 62.1833L74.158 62.2052C71.0717 61.5923 67.482 61.1327 63.5202 61.1108C63.0387 61.0889 62.5133 61.1327 62.0099 61.1327C61.5065 61.1546 60.9812 61.1546 60.4558 61.1983C59.4271 61.2859 58.3764 61.3515 57.3039 61.4829C55.1807 61.7236 53.0138 62.1614 50.803 62.7305C50.2558 62.8837 49.7086 63.0369 49.1614 63.1901C48.6142 63.3652 48.067 63.5403 47.5198 63.7154C47.2352 63.803 46.9726 63.8905 46.688 64C46.4035 64.1094 46.1408 64.197 45.8563 64.3064C45.5717 64.4158 45.309 64.5253 45.0245 64.6128C44.74 64.7223 44.4773 64.8317 44.1927 64.9412C43.6455 65.1819 43.0983 65.4227 42.5511 65.6635C42.0039 65.9042 41.4567 66.1888 40.9314 66.4514C40.6687 66.5827 40.3842 66.7141 40.1215 66.8673C39.8588 67.0205 39.5962 67.1737 39.3116 67.3269C38.7863 67.6334 38.2391 67.9179 37.7138 68.2681C37.1884 68.5964 36.6631 68.9466 36.1378 69.2749C35.6125 69.6251 35.109 69.9972 34.5837 70.3693C34.0584 70.7195 33.5769 71.1354 33.0734 71.5294L32.3292 72.1204C32.0884 72.3174 31.8477 72.5362 31.6069 72.7551C31.1254 73.1929 30.6438 73.6087 30.1623 74.0465C29.7026 74.5061 29.243 74.9658 28.7833 75.4254L28.4112 75.7975L28.0391 76.2134C27.7983 76.476 27.5357 76.7606 27.2949 77.0451C26.8133 77.6142 26.3318 78.2052 25.8721 78.818C24.9528 80.0656 24.0992 81.4227 23.3112 82.9329C22.5232 84.4432 21.8228 86.1505 21.2756 88.0985C20.7502 90.0465 20.4 92.2134 20.4438 94.621C20.4438 95.212 20.5095 95.8249 20.5751 96.4377L20.6189 96.8974L20.6408 97.0068L20.7065 97.4665C20.7721 97.8823 20.8597 98.2763 20.9472 98.6703C21.0348 99.0643 21.1442 99.4801 21.2318 99.8741L21.4507 100.487L21.4726 100.575L21.4945 100.618L21.7352 101.341L21.7571 101.384L21.9103 101.8C22.0198 102.085 22.1292 102.369 22.2605 102.632C22.3919 102.917 22.5232 103.179 22.6545 103.464C22.9172 104.011 23.2236 104.558 23.5301 105.083C24.1648 106.134 24.8872 107.119 25.6751 108.016C26.4631 108.914 27.2949 109.702 28.1266 110.402C28.5425 110.73 28.9803 111.081 29.3962 111.387L30.0309 111.825L30.6657 112.219C32.3511 113.269 33.949 113.992 35.4593 114.539C36.9696 115.086 38.3704 115.458 39.7056 115.721C42.3541 116.246 44.6962 116.443 46.8631 116.487C47.4103 116.509 47.9357 116.509 48.461 116.487C48.7236 116.487 48.9863 116.487 49.2271 116.465C49.446 116.465 49.6648 116.443 49.8837 116.443C50.7155 116.399 51.5254 116.356 52.3352 116.334C53.1451 116.29 53.9112 116.224 54.6992 116.181C55.4653 116.115 56.2095 116.071 56.9537 116.005C57.676 115.918 58.3983 115.852 59.0987 115.787C59.7992 115.699 60.4777 115.633 61.1125 115.546C64.4176 115.918 68.8829 115.217 72.2975 114.845C71.3344 114.867 71.006 114.714 71.0936 114.561C71.1374 114.473 71.2906 114.408 71.5095 114.32C71.7284 114.233 72.0567 114.167 72.4069 114.101C73.6764 113.904 74.6614 113.751 75.3837 113.598C76.1279 113.445 76.6095 113.335 76.9597 113.248C77.6601 113.072 77.7258 112.985 77.8133 112.897C77.9009 112.81 77.9666 112.7 78.667 112.482C79.0172 112.372 79.5206 112.219 80.243 112.022C80.6151 111.934 81.0309 111.825 81.5125 111.694C81.7533 111.628 82.0159 111.562 82.3005 111.497C82.585 111.431 82.8696 111.343 83.1979 111.256C83.9202 111.037 84.7739 110.818 85.737 110.555C86.7 110.293 87.7726 109.986 88.9327 109.636C90.0927 109.308 91.3404 108.914 92.6756 108.52C93.3322 108.323 94.0327 108.082 94.7331 107.863C95.4335 107.644 96.1558 107.425 96.8782 107.163C98.3228 106.659 99.855 106.178 101.409 105.587C102.175 105.302 102.985 105.018 103.773 104.711C104.561 104.405 105.371 104.098 106.181 103.792C107.8 103.157 109.442 102.479 111.128 101.735C112.813 101.012 114.498 100.224 116.206 99.3488C117.059 98.9329 117.913 98.4733 118.745 98.0137C119.598 97.554 120.43 97.0725 121.262 96.5691C122.094 96.0875 122.925 95.5622 123.757 95.0369C124.567 94.4897 125.377 93.9644 126.187 93.3953C126.975 92.8481 127.763 92.2572 128.529 91.6662C128.901 91.3598 129.273 91.0533 129.645 90.7688C129.82 90.6156 130.017 90.4624 130.192 90.3091C130.367 90.1559 130.564 90.0027 130.74 89.8495C131.09 89.5431 131.462 89.2366 131.812 88.9083C132.162 88.58 132.491 88.2736 132.841 87.9453C133.016 87.792 133.169 87.6169 133.344 87.4637C133.519 87.2886 133.673 87.1354 133.848 86.9603C134.176 86.632 134.504 86.3037 134.833 85.9753C137.35 83.305 139.364 80.6128 140.896 78.1833C142.428 75.7537 143.522 73.5868 144.223 72.0109C144.726 70.2161 145.208 68.2681 145.646 66.2544C145.843 65.2257 146.061 64.2189 146.215 63.1464C146.28 62.621 146.39 62.0957 146.434 61.5485L146.587 59.9288C146.652 59.3816 146.652 58.8344 146.674 58.2873C146.674 58.0027 146.696 57.7401 146.696 57.4774V56.6457C146.674 56.0985 146.674 55.5513 146.652 55.0041L146.631 54.5882L146.587 54.1942C146.565 53.9316 146.543 53.6689 146.499 53.4063C146.258 51.305 145.821 49.2914 145.208 47.4966L145.602 48.1751C145.536 47.9343 145.449 47.6498 145.361 47.3433C145.273 47.0369 145.164 46.6867 145.055 46.3146C144.989 46.1176 144.945 45.9425 144.879 45.7236C144.814 45.5267 144.748 45.3078 144.661 45.1108C144.507 44.6949 144.354 44.2134 144.179 43.7537C143.479 41.8495 142.472 39.6388 141.137 37.3625C139.823 35.0862 138.203 32.7223 136.321 30.4897C134.461 28.2572 132.381 26.134 130.214 24.2079C125.858 20.3557 121.131 17.2476 117.015 15.0369C116.753 14.9056 116.512 14.7524 116.249 14.621C116.009 14.4897 115.768 14.3803 115.527 14.2708C115.046 14.0301 114.586 13.8112 114.126 13.5923C113.229 13.1546 112.375 12.7606 111.609 12.3885C110.033 11.7319 108.764 11.2284 107.91 10.9001L108.764 11.4035C107.997 11.1628 107.341 10.9439 106.772 10.725C106.203 10.528 105.721 10.3748 105.305 10.1997C104.473 9.87139 103.882 9.56496 103.357 9.25853C102.832 8.9521 102.328 8.62378 101.694 8.25169C101.037 7.90148 100.227 7.52939 99.0232 7.06974C99.1764 7.6826 97.9069 7.70449 96.3528 7.57316C94.7769 7.48561 92.9164 7.20107 91.9095 6.98219L92.0408 6.76331C91.8438 6.71954 91.6468 6.69765 91.4279 6.65388C91.2091 6.63199 90.9683 6.58821 90.7056 6.56632C90.2022 6.52255 89.655 6.45689 89.064 6.39122C88.473 6.32556 87.8382 6.28178 87.1816 6.21612C86.8533 6.19423 86.5249 6.15046 86.1747 6.12857C85.8245 6.10668 85.4962 6.08479 85.146 6.08479C83.7451 6.01913 82.3005 5.93158 80.8777 5.86591C79.455 5.84403 78.0541 5.77836 76.7846 5.7127L77.0254 5.14362C75.9528 5.1655 74.6395 5.25305 73.2387 5.23117C72.5382 5.23117 71.8159 5.23117 71.0936 5.20928C70.7215 5.18739 70.3713 5.20928 69.9992 5.20928C69.6271 5.20928 69.255 5.20928 68.9048 5.23117C68.1824 5.23117 67.4601 5.23117 66.7597 5.25305C66.4095 5.25305 66.0812 5.25305 65.7528 5.25305C65.4245 5.25305 65.0962 5.27494 64.7897 5.29683C63.5421 5.36249 62.4696 5.40627 61.7035 5.47193C61.2657 5.49382 60.806 5.47193 60.3464 5.49382C59.8867 5.51571 59.4052 5.5376 58.9018 5.58137C57.9168 5.62515 56.888 5.69081 55.8155 5.73459C55.2683 5.75648 54.743 5.82214 54.1739 5.86591C53.6266 5.93158 53.0575 5.97535 52.4884 6.04102C51.3503 6.17234 50.1683 6.25989 49.0082 6.50066C47.8262 6.69765 46.6224 6.91653 45.4185 7.13541C45.1121 7.17918 44.8275 7.26673 44.5211 7.3324L43.6236 7.55128C43.0327 7.70449 42.4198 7.85771 41.8288 8.01092C41.2378 8.16414 40.6468 8.33924 40.0558 8.51434C39.4648 8.71133 38.8957 8.90832 38.3266 9.1272C37.1884 9.54307 36.0503 9.98083 34.9558 10.4405C34.9558 10.4405 34.5618 10.4624 33.949 10.528C33.3361 10.5937 32.4824 10.6812 31.585 10.8345C30.6876 10.9658 29.7683 11.1628 29.046 11.3379C28.3236 11.513 27.8421 11.6443 27.8421 11.6443C27.8421 11.6443 27.7764 11.6881 27.6889 11.7537C27.6013 11.8194 27.47 11.907 27.3605 11.9945C27.1198 12.1696 26.879 12.3447 26.879 12.3447C26.879 12.3447 26.879 12.4323 26.8571 12.6074C26.8571 12.7825 26.8352 13.0451 26.8352 13.3516C26.8352 13.9863 26.8571 14.9056 26.9884 15.9781C27.1198 17.0506 27.3387 18.2763 27.7327 19.5239C28.1048 20.7715 28.652 22.0848 29.3086 23.3105C29.9872 24.5362 30.7751 25.7182 31.6288 26.8126C32.0666 27.3598 32.5262 27.8632 32.9859 28.3228C33.0953 28.4323 33.2266 28.5636 33.358 28.673C33.4893 28.7825 33.5987 28.8919 33.7082 29.0013C33.949 29.2202 34.1678 29.4391 34.4086 29.658C35.3279 30.5116 36.2472 31.2558 37.1447 31.8249C38.0202 32.394 38.8739 32.8317 39.9026 32.9412L40.0339 33.5102C40.0339 33.5102 40.3185 33.357 40.6687 33.2038C40.8219 33.1163 41.0189 33.0506 41.1503 32.9849C41.2816 32.9193 41.3691 32.8755 41.3691 32.8755C42.3103 32.6566 43.0983 32.2845 43.5799 32.0875C44.0614 31.8687 44.2584 31.7811 44.2803 32.0875C44.2803 32.0875 44.1052 32.1313 43.8206 32.2189C43.5361 32.3064 43.164 32.394 42.8138 32.5253C42.6387 32.591 42.4636 32.6347 42.2884 32.7004C42.1352 32.7442 41.982 32.8098 41.8507 32.8536C41.6099 32.9412 41.4567 32.9849 41.4567 32.9849C41.9382 32.8536 42.2447 32.7879 42.3979 32.7879C42.5511 32.7879 42.573 32.8536 42.4854 32.963C42.3322 33.16 41.8726 33.5102 41.6099 33.7948C41.982 33.6853 42.3979 33.554 42.7919 33.4665C43.2078 33.357 43.6236 33.2914 43.9957 33.2695C44.346 32.9193 43.6018 33.1381 43.2297 33.1163C43.7769 32.8317 44.3897 32.4377 45.0902 32.0875C45.4404 31.9124 45.7906 31.7373 46.1408 31.606C46.3159 31.5403 46.5129 31.4747 46.688 31.4309C46.8631 31.3871 47.0601 31.3652 47.2571 31.3433C49.5116 30.818 47.6511 32.2189 50.2558 31.5841C50.4747 31.5403 50.6936 31.4747 50.8906 31.4309L51.5472 31.3215C51.985 31.2558 52.4228 31.1682 52.8387 31.1026L54.1301 30.8837C54.349 30.8399 54.5678 30.7962 54.7867 30.7743L55.4434 30.7086C56.3189 30.5992 57.1726 30.4897 58.0481 30.4022C58.267 30.3803 58.4859 30.3365 58.7048 30.3365L61.988 30.1176C62.2069 30.0957 62.4258 30.0738 62.6447 30.0738H63.3013C64.1769 30.052 65.0305 30.0301 65.906 30.0301C66.1249 30.0301 66.3438 30.0082 66.5627 30.0301L68.5327 30.0957C69.4082 30.1395 70.2618 30.1176 71.1374 30.2052C72.0129 30.2708 72.8666 30.3365 73.7421 30.4022C74.1799 30.4241 74.5957 30.4897 75.0335 30.5335L76.3249 30.6867C78.0541 30.8399 79.7614 31.1901 81.4906 31.4528C81.9284 31.5184 82.3443 31.606 82.782 31.6935C83.1979 31.7811 83.6357 31.8687 84.0515 31.9562C84.9052 32.1313 85.7588 32.2845 86.6125 32.5253C87.4661 32.7442 88.3198 32.963 89.1734 33.16L89.5018 33.2476L89.8082 33.3351L90.443 33.5321C90.8588 33.6635 91.2747 33.7729 91.7125 33.9042C91.9533 34.2325 91.5812 34.1012 91.1653 34.1012C92.194 34.342 93.2009 34.5827 94.1421 34.9329C95.1052 35.2613 96.0464 35.5458 96.9438 35.8741C97.8412 36.2462 98.7387 36.5964 99.6361 36.9247L100.315 37.1874L100.971 37.4719C101.409 37.6689 101.847 37.844 102.306 38.0191C103.16 38.7195 103.248 39.1573 103.423 39.5075C103.357 39.3324 104.43 39.7702 106.028 40.6238C107.603 41.4774 109.683 42.7907 111.5 44.2353C112.419 44.9576 113.273 45.7236 113.995 46.4459C114.739 47.1682 115.352 47.8686 115.834 48.4596C116.753 49.7948 117.212 50.6046 117.234 50.6703Z" fill="#0055F9"/>
<path d="M188 123.094C186.558 110.583 169.733 105.398 164.285 111.59C160.439 118.361 164.411 128.791 176.142 130.872C181.43 131.81 188 127.435 188 123.094Z" fill="#F7F3EE"/>
<path d="M188 123.094H189.25C189.25 123.046 189.247 122.999 189.242 122.951L188 123.094ZM176.142 130.872L175.924 132.103L176.142 130.872ZM134.674 100.49C137.913 98.417 143.209 96.5355 148.547 97.5189C153.777 98.4823 159.333 102.25 163.119 112.041L165.451 111.139C161.417 100.708 155.249 96.2115 149 95.0603C142.86 93.9291 136.924 96.0823 133.326 98.3842L134.674 100.49ZM165.223 112.415C166.309 111.181 168.036 110.434 170.186 110.262C172.328 110.091 174.79 110.505 177.169 111.484C181.943 113.45 186.103 117.556 186.758 123.237L189.242 122.951C188.455 116.122 183.481 111.379 178.121 109.173C175.431 108.065 172.575 107.563 169.986 107.77C167.403 107.976 164.984 108.902 163.346 110.764L165.223 112.415ZM186.75 123.094C186.75 124.653 185.516 126.501 183.366 127.919C181.258 129.309 178.614 130.041 176.361 129.641L175.924 132.103C178.959 132.641 182.244 131.654 184.742 130.006C187.199 128.386 189.25 125.876 189.25 123.094H186.75ZM176.361 129.641C165.334 127.685 162.023 118.104 165.372 112.207L163.198 110.972C158.856 118.618 163.488 129.897 175.924 132.103L176.361 129.641ZM164.15 112.832C165.537 112.983 167.799 113.465 169.97 114.412C172.165 115.37 174.082 116.722 175.042 118.503L177.243 117.316C175.896 114.818 173.379 113.173 170.97 112.121C168.537 111.059 166.024 110.521 164.42 110.347L164.15 112.832Z" fill="black"/>
<path d="M5.29032 59.0244L92.5161 29V93.4114L156 116.764C156 117.191 155.948 118.098 155.742 118.303C155.484 118.56 71.871 155 71.3548 155C49.4193 145.676 5.49677 126.977 5.29032 126.772L5.03226 125.232C4.82581 125.232 4.25806 124.89 4 124.719L5.29032 59.0244Z" fill="#F7F3EE"/>
<path d="M5.29032 59.0244L92.5161 29V93.4114M5.29032 59.0244V125.232M5.29032 59.0244L4 124.719C4.25806 124.89 4.82581 125.232 5.03226 125.232L5.29032 126.772C5.49677 126.977 49.4194 145.676 71.3548 155C71.871 155 155.484 118.56 155.742 118.303C155.948 118.098 156 117.191 156 116.764M92.5161 93.4114L156 116.764M92.5161 93.4114L5.29032 125.232M156 116.764L71.6129 153.717L5.29032 125.232" stroke="black" stroke-width="2.5"/>
<path d="M72 154C72 154.333 71.8 155 71 155" stroke="black"/>
<path d="M12 61.9873L88 35V87.6772L12 117V67.9557" stroke="black" stroke-width="2"/>
<path d="M56.5 103.5C56.5 103.722 56.3814 103.96 56.1142 104.161C55.8468 104.361 55.4546 104.5 55 104.5C54.5454 104.5 54.1532 104.361 53.8858 104.161C53.6186 103.96 53.5 103.722 53.5 103.5C53.5 103.278 53.6186 103.04 53.8858 102.839C54.1532 102.639 54.5454 102.5 55 102.5C55.4546 102.5 55.8468 102.639 56.1142 102.839C56.3814 103.04 56.5 103.278 56.5 103.5Z" fill="#F7F3EE" stroke="black"/>
<path d="M94.2062 100L29 125.223L64.3093 140L129 113.503L94.2062 100Z" fill="#F7F3EE" stroke="black" stroke-width="1.5"/>
<path d="M87.3098 133.619L111.22 124.39L119.665 127.274L95.5009 137.461L87.3098 133.619Z" fill="#F7F3EE" stroke="black" stroke-width="1.5"/>
<line x1="38.1163" y1="123.879" x2="65.4329" y2="135.733" stroke="black" stroke-width="0.5"/>
<line x1="44.3012" y1="121.301" x2="71.6177" y2="133.156" stroke="black" stroke-width="0.5"/>
<line x1="50.4861" y1="118.724" x2="77.8026" y2="130.579" stroke="black" stroke-width="0.5"/>
<line x1="56.671" y1="116.147" x2="83.9875" y2="128.002" stroke="black" stroke-width="0.5"/>
<line x1="62.8558" y1="113.57" x2="90.1723" y2="125.425" stroke="black" stroke-width="0.5"/>
<line x1="69.0407" y1="110.993" x2="96.3572" y2="122.848" stroke="black" stroke-width="0.5"/>
<line x1="75.2256" y1="108.416" x2="102.542" y2="120.271" stroke="black" stroke-width="0.5"/>
<line x1="81.4104" y1="105.839" x2="108.727" y2="117.694" stroke="black" stroke-width="0.5"/>
<line x1="87.5953" y1="103.262" x2="114.912" y2="115.117" stroke="black" stroke-width="0.5"/>
<line x1="42.0446" y1="125.938" x2="95.6468" y2="103.776" stroke="black" stroke-width="0.5"/>
<line x1="46.6851" y1="127.484" x2="100.287" y2="105.837" stroke="black" stroke-width="0.5"/>
<line x1="51.3219" y1="129.546" x2="104.924" y2="107.384" stroke="black" stroke-width="0.5"/>
<line x1="55.9613" y1="131.608" x2="110.079" y2="109.445" stroke="black" stroke-width="0.5"/>
<line x1="60.6" y1="133.669" x2="114.718" y2="111.507" stroke="black" stroke-width="0.5"/>
<line x1="65.2375" y1="135.731" x2="119.871" y2="113.053" stroke="black" stroke-width="0.5"/>
</svg>
